<svg width="38" height="33" viewBox="0 0 38 33" fill="none" xmlns="http://www.w3.org/2000/svg">
<g filter="url(#filter0_d_367_47)">
<path d="M5.76923 1.27756C4.99132 1.2852 4.51048 2.1285 4.9137 2.79379C7.23059 6.61654 13.3654 16.878 16.3873 23.2683C16.8817 24.3137 20.8252 24.2661 21.4672 23.3043C25.7061 16.9546 31.2765 6.30383 33.2591 2.44841C33.6017 1.78215 33.1056 1.00876 32.3564 1.01613L5.76923 1.27756Z" fill="#98A8B8"/>
<path d="M19.4564 24.5823L19.1944 24.5537L19.12 24.5388L19.0495 24.5238L18.9793 24.5284L18.9051 24.5331L18.7136 24.5271L18.5334 24.4742L18.4628 24.4476L18.4079 24.4247L18.3571 24.4213L18.3024 24.4218L18.2401 24.4459L18.1623 24.474L18.0025 24.5146C17.9467 24.5241 17.8895 24.5296 17.8308 24.528L17.7565 24.5248L17.6823 24.5256L17.4867 24.4962L17.3062 24.4199L17.2394 24.3815L17.2002 24.3623L17.1611 24.3549L17.0868 24.3478L16.7734 24.2611L16.7067 24.2266L16.636 24.196L16.4827 24.0998L16.3565 23.9761L16.3052 23.918L16.2577 23.8599L16.1668 23.7475L16.1194 23.6971L16.0759 23.6429L15.925 23.3983L15.869 23.266L15.8371 23.1999L15.7578 23.0757L15.6859 22.9123L15.6451 22.7408L15.6365 22.6628L15.6241 22.5887L15.624 22.577L15.6079 22.5341L15.5961 22.5265L15.5215 22.4842L15.3995 22.3956C15.3249 22.3276 15.2622 22.242 15.2251 22.1395L15.1883 21.9718L15.1882 21.964L15.1764 21.9524L14.9987 21.7628L14.9025 21.5098L14.8776 21.3616L14.8522 21.1626L14.8475 21.0806L14.8474 21.0689L14.8434 21.0611L14.7999 21.003L14.7127 20.8788L14.6731 20.8206L14.6295 20.7585L14.542 20.5992L14.4895 20.4239L14.4892 20.4005L14.4578 20.3813L14.2569 20.2075L14.1542 20.0991L14.0152 19.8622L13.9736 19.6087L13.9767 19.5227L13.98 19.468L13.9681 19.4407L13.9362 19.3747L13.9242 19.3513L13.8768 19.2932L13.8332 19.235L13.8174 19.2196L13.7545 19.1733L13.6915 19.1231L13.5614 19.0072L13.4584 18.8598L13.4226 18.7976L13.3868 18.7316L13.3061 18.4706L13.3194 18.2322L13.3381 18.15L13.3263 18.1345L13.2827 18.0763L13.2353 18.0182L13.1879 17.964L13.1405 17.9176L13.0814 17.8674L13.0185 17.8172L12.8449 17.6431L12.7974 17.585L12.7539 17.5268C12.6279 17.3729 12.604 17.1989 12.6163 17.0477C12.5831 17.0238 12.5482 17.0005 12.5179 16.9705L12.3833 16.7843L12.3514 16.7221L12.3156 16.6561L12.2639 16.5628L12.2242 16.5007L12.1885 16.4386L12.0724 16.1545L12.0641 16.1038L12.009 16.0614L11.8944 15.9375C11.7983 15.8048 11.7609 15.6473 11.7729 15.4973C11.6666 15.4033 11.5975 15.2853 11.5664 15.1556L11.5455 15.0151L11.5454 14.9995L11.5414 14.9956L11.3361 14.7711L11.2567 14.6469L11.1493 14.4448L11.1213 14.3786L11.0894 14.3126L11.0054 14.1142L10.9734 14.0441L10.9695 14.0364L10.926 13.9821L10.8785 13.924L10.847 13.893L10.784 13.8429L10.7249 13.7966L10.6184 13.6922C10.5882 13.6548 10.5641 13.6139 10.543 13.5718L10.47 13.2991L10.4653 13.221L10.4645 13.139L10.452 13.057L10.4395 12.979L10.4353 12.9517L10.4116 12.9207L10.3878 12.8858L10.3249 12.8473L10.2503 12.8051L10.0889 12.6817L9.95828 12.5072L9.92247 12.4411L9.88671 12.379L9.80291 12.2001L9.77488 12.1301L9.74688 12.0639L9.73892 12.0484L9.69541 11.9941L9.65187 11.9359L9.53629 11.7027L9.51051 11.4647L9.51403 11.4256L9.5022 11.414C9.46304 11.3729 9.42986 11.3259 9.3993 11.2782L9.32362 11.1305L9.31558 11.1072L9.25278 11.0765L9.04426 10.9262L8.89743 10.6933L8.86939 10.6233L8.84527 10.5532L8.78445 10.3272L8.77614 10.2765L8.73282 10.2418L8.54322 10.0288L8.50358 9.97058L8.46391 9.90847L8.34048 9.67139L8.31639 9.60522L8.28835 9.53518L8.22777 9.33264L8.21137 9.25467L8.19502 9.18061L8.191 9.16893L8.15523 9.10678L8.12333 9.04068L8.03145 8.83454L8.00733 8.76446L7.99116 8.70993L7.98722 8.70606L7.95164 8.66344L7.90419 8.60531L7.82913 8.52011L7.77782 8.46592L7.73041 8.4117L7.60759 8.23712L7.53923 8.03856L7.52284 7.96059L7.51039 7.88649L7.50641 7.87872L7.47849 7.8204L7.4549 7.80501L7.38417 7.76273L7.23462 7.65091L7.10813 7.49981L7.06455 7.43773L7.02491 7.37952L6.90933 7.14628L6.86108 7.00612L6.82515 6.92834L6.79325 6.86225L6.78529 6.8467L6.74986 6.8197L6.68687 6.76954L6.5567 6.64191C6.46614 6.52261 6.43474 6.38247 6.43564 6.24855C6.40432 6.22916 6.37093 6.21147 6.34128 6.18697L6.19518 6.02824L6.1555 5.96613L6.11587 5.90792L6.05252 5.8226L6.00511 5.76838L5.96157 5.71021L5.85434 5.53157L5.79774 5.3368L5.78529 5.2627L5.7728 5.1847L5.75645 5.11064L5.73232 5.04056L5.71206 4.96654L5.67196 4.86146L5.64393 4.79142L5.63179 4.74856L5.59234 4.70989L5.54103 4.6557L5.43449 4.54737L5.38317 4.49318L5.33576 4.43896L5.21333 4.30344L5.16588 4.24531L5.12234 4.18714L5.02725 4.05135L4.96325 3.89963L4.93912 3.82955L4.931 3.79838L4.90734 3.77517L4.93058 3.75541L4.915 3.75947L4.91898 3.76724L4.90734 3.77517L4.85212 3.72102C4.79998 3.66732 4.75843 3.60655 4.72535 3.54257L4.65301 3.33624L4.64052 3.25824L4.63643 3.23875L4.6285 3.22711L4.58109 3.17288L4.52579 3.11092L4.49818 3.08385L4.47447 3.05674L4.35146 2.86262L4.31094 2.71458L4.29459 2.64052L4.27827 2.57036L4.26816 2.33607L4.33628 2.11274L4.35929 2.06954L4.33899 1.99161L4.32191 1.84333C4.32036 1.743 4.33819 1.6408 4.38539 1.54582L4.47779 1.40819L4.528 1.3491L4.57824 1.29391L4.73685 1.1361L4.79104 1.08478L4.84913 1.03342C4.89543 0.99275 4.94714 0.959787 5.00047 0.930368L5.16773 0.858408L5.24176 0.838148L5.31574 0.813981C5.37564 0.796417 5.43729 0.788576 5.49906 0.784834L5.68666 0.794708L5.76099 0.805697L5.83536 0.820591L5.85099 0.820438L5.92513 0.811896L5.9954 0.807298C6.0823 0.799423 6.17102 0.800343 6.25718 0.812537L6.29241 0.820004L6.34281 0.780444C6.42648 0.724782 6.53754 0.679186 6.66597 0.671792C6.73091 0.668177 6.79269 0.671574 6.84971 0.685611L7.00657 0.746572L7.0773 0.788847L7.10085 0.800335L7.13991 0.799951L7.19042 0.772109L7.26429 0.736225C7.36684 0.683798 7.48969 0.65409 7.62303 0.670195C7.73736 0.684313 7.83182 0.731008 7.90538 0.780705C8.03709 0.727743 8.17497 0.714029 8.30744 0.749407L8.46039 0.810406L8.53112 0.852681L8.57037 0.871827L8.5899 0.871635L8.66416 0.874811L8.67584 0.87079L8.7499 0.854436L8.82006 0.838121L9.02669 0.797024L9.09692 0.788521L9.17106 0.779979L9.32325 0.762857L9.39738 0.754315L9.46762 0.745812L9.51441 0.737539L9.5884 0.713372L9.65848 0.689245C9.71771 0.670396 9.77977 0.661459 9.84175 0.656191L10.0254 0.658292L10.174 0.680269L10.3502 0.713695L10.4245 0.72859L10.495 0.743522L10.6555 0.781008L10.6868 0.788513L10.7334 0.76071C10.8543 0.695047 10.993 0.662532 11.135 0.678633L11.2799 0.712366L11.3426 0.735188L11.401 0.715082C11.4531 0.698643 11.5063 0.685246 11.5608 0.678352L11.7287 0.672795L11.7991 0.679915L11.8734 0.683092C11.9133 0.685547 11.9546 0.689177 11.9945 0.689713L12.1391 0.688292C12.206 0.689267 12.2698 0.701617 12.3308 0.717659L12.5033 0.782372L12.5779 0.820703L12.5857 0.824532L12.6403 0.816182L12.9059 0.809664L12.9763 0.816785L13.0506 0.823867L13.1092 0.823291L13.1834 0.818655L13.2302 0.818195L13.2963 0.786293L13.3663 0.750447C13.4355 0.717552 13.5108 0.696102 13.5883 0.685761L13.8267 0.69123L13.901 0.706125L13.9715 0.721058C14.0188 0.730726 14.0655 0.746434 14.1125 0.758736L14.128 0.742958C14.2123 0.671688 14.3421 0.599463 14.5093 0.59467C14.6628 0.590413 14.7846 0.649556 14.8738 0.712186L15.045 0.640186L15.119 0.619926L15.1892 0.603611C15.2763 0.580037 15.3637 0.572445 15.4468 0.581546L15.6858 0.653418L15.7603 0.687843L15.831 0.722306C15.8461 0.729737 15.8574 0.732668 15.8623 0.733717L15.9211 0.748765L15.9872 0.716864C16.075 0.67752 16.1674 0.656353 16.26 0.655584L16.5301 0.711525L16.6046 0.742044L16.6753 0.772601L16.7456 0.779722L16.8199 0.786804L16.8551 0.786458L16.9253 0.777955L16.9643 0.773665L17.0187 0.737972L17.0886 0.694314C17.1395 0.66319 17.1964 0.635591 17.2558 0.614542L17.4468 0.573599L17.517 0.565096L17.5912 0.56046L17.7942 0.55065L17.8645 0.549959L17.9388 0.553135C18.0697 0.55525 18.1859 0.594161 18.2874 0.647369C18.4038 0.583916 18.5365 0.548496 18.6772 0.565407L18.8339 0.602931L18.9084 0.63345L18.979 0.660101L19.1005 0.701877L19.1749 0.724583L19.2063 0.735994L19.2258 0.731896L19.296 0.719487L19.5615 0.705157L19.6123 0.708564L19.6821 0.657093C19.7365 0.620594 19.7979 0.589303 19.8648 0.565449L20.087 0.524199L20.1573 0.519602L20.2315 0.514966C20.2943 0.512597 20.356 0.517739 20.4152 0.528785L20.5837 0.581818L20.6465 0.60464L20.6971 0.588517L20.9115 0.547343L20.9818 0.53884L21.0559 0.526392C21.1374 0.515806 21.2162 0.521018 21.2903 0.535806L21.4981 0.607985L21.5452 0.630961L21.5646 0.622957C21.7103 0.581663 21.8611 0.588089 22.0023 0.634279L22.0728 0.657024L22.0924 0.664644L22.1002 0.660661L22.1704 0.644346L22.3029 0.611792L22.373 0.59157L22.447 0.575216C22.5102 0.559021 22.574 0.550534 22.6382 0.549898L22.8298 0.571452L22.9042 0.586346L22.9747 0.605185L23.1863 0.669514L23.2569 0.700072L23.3192 0.683833L23.4205 0.651586L23.4906 0.627458L23.5645 0.599386C23.651 0.568937 23.7395 0.557672 23.8259 0.561658L24.0804 0.621658L24.1667 0.66378L24.1706 0.659836L24.2447 0.651294L24.4008 0.630227L24.475 0.625591L24.5452 0.617088L24.674 0.600196L24.7441 0.587787L24.8183 0.579245L24.9509 0.558409L25.0211 0.542093L25.0952 0.529645L25.4155 0.534308L25.4899 0.545296L25.5642 0.560191C25.6396 0.574373 25.7073 0.607404 25.7759 0.636238C25.8731 0.568628 25.9912 0.511481 26.1301 0.503843L26.2865 0.514025L26.3569 0.525052L26.4313 0.539946L26.443 0.539831L26.5172 0.535195L26.5874 0.526692C26.6628 0.520364 26.7373 0.525721 26.8063 0.540165L26.9984 0.608592L27.069 0.643055L27.1201 0.669898L27.124 0.66986L27.1239 0.665954L27.1976 0.610539C27.3104 0.524177 27.4592 0.463043 27.6259 0.469602L27.802 0.499122L27.8726 0.521868L27.9353 0.544689L27.9821 0.540322L28.0524 0.535725C28.1655 0.529542 28.2729 0.55185 28.3732 0.58726C28.4589 0.52643 28.575 0.471813 28.7158 0.466699C28.7878 0.464244 28.8549 0.473643 28.9153 0.492082L29.0762 0.568629L29.1352 0.607113L29.1703 0.602862C29.2477 0.591832 29.3263 0.58587 29.4045 0.588839L29.4788 0.592015L29.5491 0.59523L29.776 0.624251L29.9247 0.65404L29.9795 0.661314L30.0537 0.660584L30.1241 0.663799L30.2295 0.662762L30.2998 0.658165L30.3231 0.64231L30.3968 0.586895C30.4777 0.528017 30.5867 0.474068 30.7198 0.46262C30.8559 0.450931 30.9781 0.48731 31.076 0.541152L31.1507 0.583389L31.1978 0.61027L31.2365 0.574732C31.324 0.500473 31.4425 0.430712 31.5865 0.40722L31.7387 0.401817L31.813 0.404993L31.8873 0.412075C31.9705 0.418277 32.046 0.439763 32.1144 0.468438L32.2991 0.576003L32.3306 0.599132L32.4631 0.566578L32.5449 0.546241L32.6306 0.525866C32.7738 0.491356 32.9252 0.501928 33.0646 0.564569L33.1982 0.641384L33.2612 0.691549L33.3281 0.741675C33.386 0.786169 33.4354 0.838834 33.4781 0.896458L33.5815 1.08686L33.6096 1.1608L33.6296 1.21139L33.6651 1.24229L33.7203 1.30034C33.7742 1.35355 33.8194 1.41401 33.8549 1.47872L33.9312 1.68501L33.9515 1.76294L33.9678 1.84091C34.0024 1.99784 33.9866 2.15959 33.9216 2.30623L33.8872 2.38079L33.8567 2.45531L33.8224 2.5455L33.7769 2.68657L33.6966 2.86315C33.6639 2.9175 33.625 2.96738 33.5809 3.01274L33.4726 3.12318L33.4456 3.1586L33.4072 3.22149L33.3687 3.28046L33.3226 3.36295L33.2881 3.42579L33.2575 3.4886L33.2426 3.56687L33.2316 3.6412L33.1521 3.89981L33.1254 3.96648L33.0948 4.03319L32.9717 4.22582C32.9226 4.28075 32.8671 4.3268 32.809 4.36414C32.7973 4.51 32.7452 4.65157 32.645 4.77202L32.5987 4.83107L32.5717 4.8665L32.5527 4.91356L32.5299 4.9841L32.4651 5.141C32.4371 5.19232 32.4028 5.24163 32.3649 5.28652L32.3186 5.34167L32.2684 5.40076L32.2376 5.44403L32.203 5.50687L32.1877 5.53828L32.1842 5.57737L32.1772 5.65948L32.1017 5.92976C32.0579 6.01176 31.9956 6.08315 31.9202 6.1425L31.8582 6.19389L31.7923 6.24142L31.7303 6.30062L31.6182 6.41501L31.5836 6.47785L31.5568 6.53281L31.5458 6.59933L31.5348 6.67366L31.4704 6.88133C31.4393 6.94709 31.3975 7.01074 31.3472 7.06614L31.2467 7.17651L31.212 7.22373L31.2006 7.24728L31.213 7.32138C31.2447 7.49165 31.2255 7.70615 31.074 7.88528L31.0238 7.94046L30.9736 7.99955L30.9504 8.03103L30.9159 8.09778L30.8853 8.16058L30.766 8.34536L30.7197 8.40441L30.7122 8.43183L30.7051 8.51003L30.6256 8.76082C30.5844 8.83785 30.5292 8.90742 30.4596 8.96559L30.3976 9.01698L30.3395 9.06834L30.3201 9.08415L30.2778 9.14317L30.2662 9.16281L30.2588 9.19804L30.2439 9.27241L30.1487 9.53117C30.1004 9.60809 30.0373 9.6755 29.9632 9.72832L29.8972 9.77584L29.8507 9.80755L29.8353 9.83114L29.8354 9.84286L29.8401 9.92876C29.8494 10.0541 29.8336 10.1913 29.7737 10.324L29.7125 10.4574L29.6126 10.6224C29.5727 10.6728 29.5262 10.7175 29.4772 10.7566L29.4345 10.7922L29.4233 10.8392L29.378 10.9959C29.3572 11.0466 29.3278 11.0942 29.2973 11.1412L29.2589 11.2041L29.2204 11.263L29.1124 11.4008C29.0724 11.4415 29.0259 11.4757 28.9806 11.5076L28.9612 11.5234L28.9575 11.543L28.9088 11.7544L28.89 11.8288L28.8673 11.8994L28.7719 12.1308L28.7374 12.1975L28.7029 12.2604L28.6415 12.3782L28.6109 12.441L28.5764 12.5077L28.4182 12.7124C28.3632 12.7611 28.3029 12.7984 28.2436 12.8274C28.2352 12.8957 28.2234 12.964 28.2026 13.0309L28.1571 13.172L28.0076 13.4587L27.9652 13.5177L27.9188 13.5728L27.834 13.6869L27.7916 13.746L27.7685 13.7774L27.7572 13.8166L27.7423 13.891L27.6318 14.1772L27.5549 14.303L27.4276 14.4644C27.3789 14.511 27.3235 14.5471 27.2686 14.5793L27.1987 14.6229L27.1948 14.6269L27.1719 14.6779L27.0721 14.8664L27.0376 14.9253L27.003 14.9803L27.0029 14.9764L26.9991 14.9882L26.988 15.0508L26.9692 15.1252L26.9165 15.321L26.8898 15.3916L26.867 15.4583L26.7638 15.6858L26.7253 15.7448L26.6908 15.8077L26.5869 15.9688L26.5021 16.0869L26.425 16.197L26.3403 16.315L26.2052 16.4883L26.1511 16.5435L26.1434 16.5592L26.132 16.5866L26.1092 16.6572L26.0021 16.8887C25.9529 16.9568 25.8926 17.0157 25.8241 17.0623L25.7582 17.106L25.7194 17.1376L25.7079 17.1533L25.5697 17.4047L25.5739 17.432L25.5786 17.5179C25.586 17.6211 25.5725 17.7455 25.5078 17.8663C25.4418 17.9887 25.3416 18.0714 25.2447 18.1228L25.1981 18.1506L25.1866 18.1741L25.091 18.386L25.022 18.5117L24.8872 18.7123L24.8525 18.7556L24.8486 18.7595L24.8416 18.8416L24.8156 18.9825C24.7761 19.1193 24.6951 19.2419 24.573 19.3326L24.5536 19.3484L24.5499 19.3719L24.5087 19.548C24.4881 19.6059 24.4591 19.6629 24.4244 19.7169L24.3859 19.7758L24.3475 19.8387L24.3052 19.9094L24.244 20.0429L24.0821 20.2593C24.0256 20.3095 23.9619 20.3453 23.8996 20.3744C23.8897 20.445 23.8741 20.5168 23.8509 20.5858L23.8054 20.7269L23.679 20.9782L23.6366 21.0372L23.5981 21.1L23.4745 21.2419C23.4289 21.2835 23.3781 21.3187 23.3271 21.3488L23.2572 21.3886L23.2068 21.4242L23.1797 21.4557L23.1334 21.5148L23.1181 21.5423L23.0875 21.6129L23.0608 21.6796L22.9379 21.8956L22.8955 21.9547L22.8725 21.99L22.8573 22.041L22.8424 22.1153L22.7701 22.3075C22.7393 22.3665 22.701 22.422 22.6545 22.4727L22.6043 22.5279L22.585 22.5515L22.5736 22.5828L22.5547 22.6533L22.4437 22.881C22.3947 22.9474 22.3346 23.0047 22.2657 23.0507L22.1337 23.138L22.0872 23.1736L22.064 23.2012L22.0568 23.2598L22.0309 23.4046C21.9893 23.5429 21.9017 23.6687 21.7687 23.7588L21.7027 23.8024L21.6406 23.846L21.4813 23.9296C21.4266 23.9516 21.3691 23.9678 21.3099 23.9782L21.2358 23.9906L21.1968 23.9988L21.158 24.0226L21.0958 24.0584L20.9911 24.1297L20.929 24.1733L20.8708 24.2169L20.6844 24.3281L20.5523 24.3997L20.3576 24.468C20.2907 24.4827 20.2206 24.4892 20.1508 24.4857L20.0765 24.4825L20.0296 24.483L19.9907 24.4951L19.9207 24.5231L19.6009 24.5809L19.4564 24.5823ZM32.7136 1.41181L32.7525 1.39971L32.7483 1.37241L32.8178 1.28187L32.8422 1.3832L32.765 1.47772L32.7728 1.47764L32.7728 1.47373L32.8422 1.3832L32.8178 1.28187L32.7136 1.41181ZM32.7483 1.37241L32.7525 1.39971L32.7136 1.41181L32.7483 1.37241ZM19.6338 23.561L19.7039 23.533C19.8156 23.4904 19.9356 23.4726 20.0549 23.4787L20.1292 23.4819L20.1488 23.4856L20.1565 23.4778L20.2225 23.4419L20.2963 23.3982L20.3545 23.3547L20.4166 23.3111L20.5524 23.2199L20.6106 23.1803L20.6728 23.1445C20.7228 23.1122 20.7745 23.0855 20.8282 23.0649L20.9919 23.0203L21.0621 23.0079L21.0777 23.0077C21.085 22.9294 21.1007 22.8509 21.134 22.7767L21.2804 22.5643L21.3887 22.4617L21.5786 22.3075L21.6252 22.2797L21.6326 22.2366C21.65 22.1751 21.6742 22.1157 21.7051 22.0601L21.8169 21.9067L21.8671 21.8515L21.8788 21.8436L21.8825 21.8201L21.8974 21.7457C21.9098 21.6909 21.9277 21.6369 21.9505 21.585L22.0388 21.4357L22.0812 21.3767L22.1236 21.3138L22.1428 21.2784L22.204 21.145L22.3307 20.9211L22.4155 20.8031C22.4521 20.7534 22.4952 20.7116 22.5392 20.6729L22.6788 20.57L22.7487 20.5302L22.7992 20.5024L22.8146 20.4749L22.853 20.412L22.8569 20.4081L22.8796 20.3375L22.9063 20.267L22.9137 20.2239L22.9207 20.1457L22.9277 20.0636C22.9385 19.9538 22.9788 19.8396 23.0574 19.7381C23.0964 19.6879 23.1398 19.6447 23.185 19.6118L23.321 19.5363L23.395 19.5082L23.4025 19.4808L23.5062 19.2962L23.5446 19.2372L23.5639 19.2097L23.5673 19.1628L23.5783 19.0845C23.5905 18.9917 23.6199 18.9038 23.6656 18.8258L23.8511 18.6248L23.855 18.6247L23.8548 18.6052C23.8602 18.5318 23.876 18.4574 23.9035 18.386L24.0265 18.1816L24.1191 18.0713L24.1461 18.032L24.2152 17.9063L24.2419 17.8475L24.2874 17.7064C24.3422 17.5485 24.4536 17.4418 24.5731 17.3637C24.5725 17.3118 24.5691 17.258 24.5794 17.2035L24.6593 16.9879L24.6938 16.9211L24.7283 16.8583L24.8013 16.7286L24.8704 16.6029C24.9032 16.5444 24.9426 16.4917 24.986 16.4456L25.1255 16.327L25.176 16.2952L25.1834 16.2561C25.2002 16.1928 25.2246 16.1325 25.2558 16.0757L25.3676 15.9183L25.4178 15.8632L25.472 15.8079L25.5144 15.7528L25.5567 15.6899L25.5991 15.6309L25.6877 15.5011L25.7301 15.4421L25.7764 15.383L25.8303 15.3005L25.8648 15.2376L25.9033 15.1748L25.9224 15.1355L25.9679 14.9944L25.9943 14.9043L26.0131 14.8299L26.028 14.7555L26.1425 14.4731L26.2193 14.3474L26.2538 14.2767L26.2844 14.21L26.3111 14.1433C26.3452 14.0652 26.393 13.9995 26.4459 13.9428L26.6203 13.8044L26.6902 13.7607L26.7251 13.7408L26.7328 13.7251L26.7712 13.6622L26.7824 13.6035L26.7973 13.5292C26.8099 13.471 26.8297 13.4149 26.8542 13.3606L26.9464 13.2035L26.9927 13.1444L27.0351 13.0854L27.1277 12.9634L27.1701 12.9083L27.2087 12.8649L27.2238 12.8062L27.2465 12.7356L27.2539 12.6965L27.261 12.6144L27.2641 12.5362C27.2792 12.34 27.3765 12.1859 27.5058 12.0846L27.6456 12.0012L27.7273 11.9653L27.7351 11.9652L27.7503 11.926L27.8231 11.7846L27.8577 11.7218L27.8922 11.655L27.9075 11.6197L27.9302 11.5492L27.949 11.4748L27.9678 11.3965L27.9787 11.3182L27.9897 11.2439C28.004 11.1469 28.0399 11.0585 28.0887 10.9812L28.2743 10.784L28.3402 10.7365L28.3984 10.7008L28.4215 10.6576L28.4484 10.6183L28.4596 10.5595L28.4745 10.4852C28.4922 10.4006 28.5264 10.3229 28.5698 10.2538L28.7321 10.0725L28.7942 10.025L28.8252 10.0051L28.8328 9.97773L28.8443 9.96199L28.8361 9.91519L28.8313 9.8332L28.8447 9.6065L28.9363 9.38293L28.9747 9.32005L29.0132 9.26107C29.0451 9.20977 29.0813 9.16117 29.1212 9.11938L29.2529 9.00871L29.2801 8.99281L29.2799 8.96938C29.2896 8.90661 29.3049 8.84444 29.3289 8.78529L29.4249 8.61637L29.5097 8.49834L29.6991 8.29725L29.7262 8.27745L29.7259 8.24621C29.7333 8.1789 29.7501 8.11063 29.7748 8.0465L29.8784 7.86187L29.9632 7.74385L30.0017 7.68487L30.0708 7.55919C30.1083 7.48945 30.1557 7.42684 30.2056 7.36645L30.1974 7.32356C30.1765 7.21117 30.1771 7.07759 30.2249 6.94436L30.29 6.8109L30.3285 6.75193L30.3669 6.68905L30.5057 6.50408L30.5599 6.44886L30.5598 6.44495L30.5708 6.37062L30.6695 6.07276L30.704 6.00601L30.7385 5.94317L30.9081 5.71102L31.0125 5.60452L31.1751 5.45448L31.1907 5.44651L31.1905 5.43089C31.1948 5.3713 31.2069 5.30967 31.2239 5.25086L31.2964 5.07827L31.331 5.01542L31.3694 4.94864L31.5042 4.75199L31.5544 4.69681L31.5853 4.66525L31.5966 4.61826L31.6194 4.54772C31.6363 4.49299 31.6574 4.44034 31.6842 4.39083L31.7805 4.24925L31.823 4.20586L31.8223 4.13164C31.8313 3.96247 31.9016 3.8169 32.0095 3.70791L32.1258 3.61301L32.1957 3.56935L32.2112 3.56139L32.238 3.49862L32.2456 3.47511L32.2565 3.39687L32.2714 3.3225L32.3624 3.04034L32.3969 2.9775L32.4275 2.91079L32.5235 2.74187L32.562 2.68289L32.6043 2.61998L32.7587 2.42704L32.8361 2.34815L32.8436 2.32073L32.8664 2.25019L32.9425 2.05022L32.973 1.97569L32.973 1.96788L32.9611 1.95628L32.9059 1.89823L32.7873 1.75485L32.7036 1.5877L32.6875 1.54098C32.6351 1.55367 32.5845 1.56304 32.5394 1.57369L32.4693 1.59391L32.3991 1.61023L32.2352 1.62746C32.1814 1.62604 32.1307 1.61489 32.0826 1.60162L31.8392 1.47901L31.7762 1.43275L31.7413 1.46044L31.5122 1.5916C31.4672 1.60773 31.419 1.61824 31.3679 1.62427L31.2039 1.62588L31.1335 1.61486L31.0591 1.60387L30.8908 1.56646C30.8596 1.55574 30.8298 1.54189 30.8006 1.52828C30.6993 1.59386 30.5751 1.64477 30.4307 1.65302L30.3565 1.65766L30.2862 1.66225L30.0987 1.6641L30.0245 1.66092L29.9542 1.66161L29.7195 1.63267L29.649 1.61773L29.5747 1.60284L29.5121 1.59564L29.4378 1.59247L29.3675 1.58925C29.3497 1.58856 29.3313 1.59111 29.3128 1.5937L29.2387 1.60224L29.1685 1.61465L28.9027 1.59773C28.85 1.58448 28.8036 1.55962 28.7576 1.53665C28.6419 1.60552 28.5027 1.64264 28.3561 1.62654L28.1838 1.58136L28.1093 1.55475L28.0661 1.53564L28.0349 1.53595L27.9646 1.54054L27.7966 1.53438C27.754 1.52862 27.7123 1.51986 27.6713 1.50827L27.6596 1.51229L27.4576 1.62756C27.3806 1.65609 27.2942 1.67138 27.2002 1.66916L27.126 1.66989L27.0556 1.66667L26.8679 1.64117L26.6993 1.57642L26.6247 1.542L26.6051 1.53047L26.6012 1.53051L26.527 1.53515L26.2495 1.52225L26.2029 1.55396L26.0709 1.63339C26.0195 1.65575 25.9591 1.67002 25.8955 1.67808C25.8318 1.68598 25.7701 1.68621 25.7119 1.67598L25.5473 1.619L25.3982 1.55015L25.3786 1.54253L25.3081 1.53151L25.2494 1.52036L25.1948 1.52871L25.1207 1.54116L24.9647 1.56613L24.8906 1.57858L24.8204 1.58709L24.6565 1.60823L24.5824 1.61677L24.5121 1.62527L24.3795 1.6422L24.3054 1.65075L24.2352 1.66316L24.0164 1.6614L23.8166 1.60086L23.7813 1.58558L23.5631 1.65023L23.4891 1.67049L23.4189 1.68681L23.1887 1.7086L22.9694 1.65998L22.8988 1.62942L22.8243 1.60281L22.746 1.57623L22.6755 1.5613L22.652 1.55762L22.6247 1.5618L22.5507 1.57815L22.3909 1.61879L22.3207 1.6351L22.2467 1.65146L22.0398 1.66912L21.8363 1.63205L21.7619 1.60935L21.758 1.60938L21.6917 1.62566L21.4224 1.64784L21.1794 1.5721L21.1048 1.53377L21.1009 1.53381L21.0385 1.53833L20.9644 1.55468L20.8904 1.57494L20.8203 1.59517L20.5822 1.61704L20.3512 1.56462L20.2806 1.53797L20.2336 1.5189L20.1906 1.51932L20.1673 1.53518L20.0975 1.58665L19.8875 1.68637C19.8111 1.70927 19.7271 1.71843 19.6378 1.71227L19.5635 1.70909L19.4931 1.70197L19.4658 1.70224L19.3956 1.71465L19.3215 1.731L19.1263 1.73683L18.9384 1.69961L18.8639 1.67691L18.7934 1.65416L18.6405 1.60097L18.6366 1.60101L18.4889 1.67278C18.4331 1.69142 18.3719 1.70439 18.3056 1.70583C18.2388 1.70711 18.1749 1.69702 18.1178 1.68034L17.9648 1.61152L17.8902 1.56929L17.8509 1.55014L17.7767 1.55087L17.6908 1.55562L17.6166 1.56026L17.5893 1.56443L17.5388 1.59227L17.4689 1.63593L17.3096 1.71563C17.2523 1.73685 17.1908 1.7521 17.1264 1.7604L17.0523 1.76894L16.982 1.77745L16.7243 1.78389L16.6539 1.77677L16.5796 1.76968L16.2859 1.69444L16.2702 1.69069L16.2507 1.69479L16.0325 1.75553L15.798 1.74221L15.7237 1.72732L15.6532 1.71238C15.5612 1.69273 15.4726 1.66142 15.3906 1.62121L15.3435 1.59824L15.3084 1.60639L15.2617 1.62638L15.114 1.69815L14.9427 1.75843C14.881 1.76998 14.8154 1.77348 14.7474 1.76426C14.6681 1.75349 14.5991 1.72705 14.5397 1.69599C14.4477 1.75221 14.3345 1.79107 14.2086 1.793L14.0287 1.77133L13.9543 1.74862L13.8838 1.72978L13.7702 1.70355L13.7193 1.69233L13.6532 1.72424L13.4975 1.78046C13.4438 1.79522 13.3876 1.80512 13.3298 1.80945L13.2556 1.81409L13.1854 1.81868L12.9549 1.81704L12.8806 1.80996L12.8102 1.80284L12.7829 1.80311L12.7127 1.81552L12.6385 1.82406L12.4041 1.81855L12.1924 1.74641L12.1218 1.71195L12.0786 1.68894L11.9809 1.6899C11.9245 1.68914 11.8653 1.68336 11.8089 1.67987L11.7386 1.67665L11.6878 1.67715L11.6294 1.69335L11.5593 1.71357L11.3291 1.74709L11.0983 1.71029L11.0905 1.71037L11.0671 1.71841L10.8296 1.79888L10.5638 1.78586L10.4934 1.77093L10.419 1.75213L10.2858 1.72219L10.2154 1.70726L10.141 1.69236L10.0314 1.67L9.95709 1.65901L9.92971 1.65537L9.89076 1.66748L9.81678 1.69164L9.57506 1.7409L9.50092 1.74944L9.43069 1.75794L9.29409 1.771L9.21999 1.78345L9.14976 1.79196L9.06398 1.80843L8.98992 1.82478L8.91977 1.84109L8.64274 1.87507L8.56849 1.87189L8.49818 1.87259L8.29862 1.83939C8.24333 1.82356 8.19057 1.80372 8.14177 1.77843C8.04403 1.82599 7.92541 1.85068 7.79857 1.83649C7.68188 1.82325 7.58689 1.77646 7.51232 1.72602C7.4248 1.76299 7.33004 1.79006 7.22783 1.79523L7.15365 1.79986L7.08334 1.80056L6.86437 1.77927C6.81315 1.76654 6.76521 1.74749 6.71931 1.72601C6.59379 1.80067 6.43812 1.8488 6.26322 1.82425L6.18889 1.81326L6.11847 1.80223C6.10796 1.80074 6.09675 1.80167 6.08722 1.80254L6.01304 1.80717L5.94281 1.81568L5.66533 1.80278L5.59099 1.79179L5.55971 1.78819L5.52463 1.79635L5.48568 1.80845L5.45471 1.8361L5.39661 1.88746L5.35411 1.93475C5.38733 2.08347 5.37778 2.24771 5.30403 2.40402L5.28109 2.45503L5.34038 2.52476L5.4352 2.63321C5.48149 2.68732 5.51764 2.74652 5.5463 2.8079L5.60673 2.99482L5.62312 3.07279L5.62316 3.07669L5.67448 3.13088C5.71803 3.17575 5.75705 3.22506 5.78921 3.2782L5.86512 3.44933L5.88925 3.51941L5.90931 3.5739L5.9884 3.67079L6.06346 3.75599L6.11473 3.80627L6.16214 3.86049L6.26083 3.965L6.31215 4.01918L6.36737 4.07333C6.40591 4.11362 6.43984 4.15821 6.47023 4.20514L6.54985 4.35671L6.57398 4.42678L6.60198 4.49292L6.66226 4.66421L6.68642 4.73819L6.71055 4.80827L6.75961 5.03046L6.7721 5.10846L6.77624 5.13186L6.78413 5.1396L6.83157 5.19773L6.9424 5.34508L6.98208 5.40719L6.98606 5.41497L7.02922 5.43408L7.10386 5.47631C7.20539 5.5269 7.31108 5.61158 7.37993 5.74314C7.44483 5.86748 7.45551 5.99188 7.44589 6.09407C7.48045 6.12289 7.51461 6.15222 7.54446 6.18686L7.6515 6.34597L7.68731 6.41203L7.71921 6.47812L7.79917 6.66485L7.82721 6.73489L7.85133 6.80497L7.86332 6.83219L7.903 6.89431L7.91885 6.91759L7.96205 6.9406L8.03278 6.98288C8.09138 7.01731 8.14794 7.05924 8.1981 7.11016L8.32877 7.28858L8.36067 7.35467L8.39253 7.41686L8.489 7.69327L8.50536 7.76733L8.50942 7.78292L8.56073 7.8371L8.67926 7.97266L8.77416 8.08892L8.92926 8.36866L8.97752 8.50882L9.00153 8.56718L9.0373 8.62933L9.0692 8.69543L9.16946 8.96008L9.20217 9.1082L9.22641 9.19L9.25445 9.26004L9.27854 9.32621L9.29045 9.34563L9.33012 9.40774L9.36976 9.46595L9.38159 9.47755L9.49977 9.57795C9.62568 9.6853 9.70792 9.83001 9.73824 9.9936L9.7546 10.0677L9.76709 10.1457L9.78332 10.208L9.79133 10.2275L9.84628 10.2543C9.91684 10.2887 9.98596 10.3356 10.0469 10.3968L10.1976 10.6258L10.2256 10.692L10.2456 10.7426L10.2772 10.7774L10.3285 10.8316C10.471 10.981 10.5248 11.1663 10.5171 11.3376L10.514 11.4157L10.5338 11.4429L10.6729 11.6837L10.7009 11.7498L10.7289 11.8199L10.7688 11.9015L10.8046 11.9715L10.8282 11.983L10.8989 12.0253C10.9476 12.0537 10.996 12.0871 11.0405 12.1254L11.1629 12.257L11.2065 12.3152L11.2539 12.3733C11.2919 12.4236 11.3243 12.4767 11.3492 12.5326L11.4017 12.7078L11.4181 12.7858L11.4345 12.8599L11.4601 13.0862L11.4643 13.1096L11.4682 13.1135L11.6536 13.2913L11.701 13.3495L11.7446 13.4076L11.8915 13.6484L11.9195 13.7145L11.9514 13.7806L12.0074 13.9168L12.0393 13.9829L12.0673 14.049L12.0952 14.1034L12.1348 14.1655L12.1705 14.2199L12.1705 14.216L12.2887 14.3164C12.4087 14.4128 12.489 14.5387 12.5227 14.6774L12.5398 14.8218L12.5438 14.8373C12.7294 14.9867 12.7999 15.2042 12.7838 15.4053L12.7838 15.4092C12.8348 15.4544 12.8817 15.5029 12.9181 15.5603L13.0102 15.782L13.0304 15.856L13.0468 15.9301L13.0785 15.9767L13.1143 16.0388L13.2057 16.1981L13.2375 16.2603L13.2415 16.2641L13.2572 16.2718L13.3318 16.314C13.4327 16.3719 13.5329 16.4645 13.5925 16.6006C13.6506 16.7345 13.649 16.8667 13.6312 16.9674L13.6239 17.0143L13.6594 17.0491L13.7185 17.0993L13.7815 17.1495L13.9472 17.3158L13.9946 17.3701L14.0459 17.4282L14.1726 17.6027L14.252 17.7269C14.365 17.9074 14.3664 18.1006 14.3353 18.2496L14.3167 18.3435L14.3206 18.3474L14.36 18.3782L14.4229 18.4245L14.628 18.6256L14.7151 18.742L14.8502 18.9672L14.8821 19.0333L14.9101 19.1033C14.9633 19.2241 14.9831 19.3482 14.9801 19.466L14.9806 19.5206L14.9924 19.5322L15.0279 19.5631L15.1616 19.6556C15.2342 19.7062 15.2977 19.7702 15.3471 19.8452L15.4512 20.102L15.4636 20.1761L15.4719 20.219L15.4877 20.2422L15.5313 20.3043L15.6145 20.4207L15.658 20.4789L15.7016 20.5409C15.7442 20.6007 15.7743 20.6655 15.7972 20.7314L15.8422 20.9341L15.8516 21.0903L15.8643 21.1956L15.8724 21.2268L15.9039 21.2499C16.0475 21.3574 16.1463 21.5155 16.1701 21.7044L16.174 21.7043C16.2366 21.7405 16.2967 21.7891 16.3512 21.8471L16.486 22.0528L16.5141 22.1229L16.5421 22.189L16.619 22.4656L16.6276 22.5397L16.6358 22.5865L16.6557 22.6215L16.6915 22.6837L16.791 22.8741L16.847 23.0064L16.8391 22.9986L16.8865 23.0529L16.93 23.1032L17.0249 23.2156L17.0723 23.2737L17.1078 23.3124L17.1942 23.3545L17.2528 23.3579L17.3271 23.3649C17.3891 23.3706 17.4492 23.3836 17.5072 23.4022L17.672 23.4748L17.7387 23.5132L17.7662 23.5286L17.8366 23.5279L17.8988 23.5039L17.9767 23.4797L18.3004 23.4218L18.3707 23.425L18.4449 23.4243C18.5011 23.4251 18.556 23.4311 18.6092 23.4422L18.7698 23.4914L18.8405 23.5219L18.8718 23.5334L18.8991 23.5292L18.9694 23.5246L19.2665 23.5451L19.3409 23.5639L19.4153 23.5788L19.4465 23.5824L19.5833 23.581L19.6338 23.561ZM5.0977 2.47636L5.19447 2.38556L4.99174 2.42662L5.0977 2.47636ZM4.99174 2.42662L5.19447 2.38556L5.15576 2.4211L5.0977 2.47636L4.99174 2.42662ZM4.915 3.75947L4.93058 3.75541L4.91898 3.76724L4.915 3.75947ZM9.49407 10.9843L9.54002 10.8901L9.41939 10.9382L9.37344 11.0324L9.49407 10.9843ZM9.41939 10.9382L9.54002 10.8901L9.49407 10.9843L9.37344 11.0324L9.41939 10.9382ZM12.3922 14.9091L12.4617 14.8264L12.3562 14.8275L12.2867 14.9141L12.3922 14.9091ZM12.3562 14.8275L12.4617 14.8264L12.3922 14.9091L12.2867 14.9141L12.3562 14.8275ZM11.8025 14.9267L11.872 14.8439L11.6611 14.8499L11.5955 14.9326L11.8025 14.9267ZM11.7704 14.8449L11.872 14.8439L11.8025 14.9267L11.701 14.9316L11.7704 14.8449ZM11.6611 14.8499L11.7704 14.8449L11.701 14.9316L11.5955 14.9326L11.6611 14.8499ZM11.9997 15.5185L12.0692 15.4358L11.9754 15.4289L11.9098 15.5116L11.9997 15.5185ZM11.9098 15.5116L11.9754 15.4289L12.0692 15.4358L11.9997 15.5185L11.9098 15.5116ZM12.4298 15.5533L12.6135 15.5672L12.683 15.4844L12.4954 15.4707L12.4298 15.5533ZM12.4298 15.5533L12.4954 15.4707L12.5892 15.4776L12.5197 15.5603L12.4298 15.5533ZM12.5197 15.5603L12.5892 15.4776L12.683 15.4844L12.6135 15.5672L12.5197 15.5603ZM12.3086 15.9491L12.1839 15.9777L12.1067 16.0722L12.2314 16.0436L12.3086 15.9491ZM12.1839 15.9777L12.3086 15.9491L12.2314 16.0436L12.1067 16.0722L12.1839 15.9777ZM16.0034 21.831L16.0494 21.7485L15.9441 21.7574L15.898 21.8399L16.0034 21.831ZM15.9441 21.7574L16.0494 21.7485L16.0034 21.831L15.898 21.8399L15.9441 21.7574ZM15.3937 21.8018L15.2844 21.8107L15.2227 21.8934L15.332 21.8845L15.3937 21.8018ZM15.2844 21.8107L15.3937 21.8018L15.332 21.8845L15.2227 21.8934L15.2844 21.8107Z" fill="white"/>
</g>
<defs>
<filter id="filter0_d_367_47" x="0.268066" y="0.401794" width="37.7175" height="32.1805" filterUnits="userSpaceOnUse" color-interpolation-filters="sRGB">
<feFlood flood-opacity="0" result="BackgroundImageFix"/>
<feColorMatrix in="SourceAlpha" type="matrix" values="0 0 0 0 0 0 0 0 0 0 0 0 0 0 0 0 0 0 127 0" result="hardAlpha"/>
<feOffset dy="4"/>
<feGaussianBlur stdDeviation="2"/>
<feComposite in2="hardAlpha" operator="out"/>
<feColorMatrix type="matrix" values="0 0 0 0 0 0 0 0 0 0 0 0 0 0 0 0 0 0 0.25 0"/>
<feBlend mode="normal" in2="BackgroundImageFix" result="effect1_dropShadow_367_47"/>
<feBlend mode="normal" in="SourceGraphic" in2="effect1_dropShadow_367_47" result="shape"/>
</filter>
</defs>
</svg>
