<svg id="visual" viewBox="0 0 900 600" width="900" height="600" xmlns="http://www.w3.org/2000/svg" xmlns:xlink="http://www.w3.org/1999/xlink" version="1.1"><rect x="0" y="0" width="900" height="600" fill="#001220"></rect><path d="M0 420L21.5 414.2C43 408.3 86 396.7 128.8 390.2C171.7 383.7 214.3 382.3 257.2 376.7C300 371 343 361 385.8 366C428.7 371 471.3 391 514.2 405.7C557 420.3 600 429.7 642.8 424.5C685.7 419.3 728.3 399.7 771.2 392.8C814 386 857 392 878.5 395L900 398L900 601L878.5 601C857 601 814 601 771.2 601C728.3 601 685.7 601 642.8 601C600 601 557 601 514.2 601C471.3 601 428.7 601 385.8 601C343 601 300 601 257.2 601C214.3 601 171.7 601 128.8 601C86 601 43 601 21.5 601L0 601Z" fill="#fa7268"></path><path d="M0 401L21.5 412.7C43 424.3 86 447.7 128.8 457.3C171.7 467 214.3 463 257.2 450.5C300 438 343 417 385.8 412.3C428.7 407.7 471.3 419.3 514.2 426.3C557 433.3 600 435.7 642.8 431.3C685.7 427 728.3 416 771.2 417.5C814 419 857 433 878.5 440L900 447L900 601L878.5 601C857 601 814 601 771.2 601C728.3 601 685.7 601 642.8 601C600 601 557 601 514.2 601C471.3 601 428.7 601 385.8 601C343 601 300 601 257.2 601C214.3 601 171.7 601 128.8 601C86 601 43 601 21.5 601L0 601Z" fill="#ef5f67"></path><path d="M0 442L21.5 450.2C43 458.3 86 474.7 128.8 479.5C171.7 484.3 214.3 477.7 257.2 470.7C300 463.7 343 456.3 385.8 456.7C428.7 457 471.3 465 514.2 474.7C557 484.3 600 495.7 642.8 498C685.7 500.3 728.3 493.7 771.2 493.3C814 493 857 499 878.5 502L900 505L900 601L878.5 601C857 601 814 601 771.2 601C728.3 601 685.7 601 642.8 601C600 601 557 601 514.2 601C471.3 601 428.7 601 385.8 601C343 601 300 601 257.2 601C214.3 601 171.7 601 128.8 601C86 601 43 601 21.5 601L0 601Z" fill="#e34c67"></path><path d="M0 505L21.5 506C43 507 86 509 128.8 506.7C171.7 504.3 214.3 497.7 257.2 499.3C300 501 343 511 385.8 513.2C428.7 515.3 471.3 509.7 514.2 508C557 506.3 600 508.7 642.8 506.3C685.7 504 728.3 497 771.2 502.2C814 507.3 857 524.7 878.5 533.3L900 542L900 601L878.5 601C857 601 814 601 771.2 601C728.3 601 685.7 601 642.8 601C600 601 557 601 514.2 601C471.3 601 428.7 601 385.8 601C343 601 300 601 257.2 601C214.3 601 171.7 601 128.8 601C86 601 43 601 21.5 601L0 601Z" fill="#d53867"></path><path d="M0 563L21.5 557C43 551 86 539 128.8 538.7C171.7 538.3 214.3 549.7 257.2 552.8C300 556 343 551 385.8 552.3C428.7 553.7 471.3 561.3 514.2 560C557 558.7 600 548.3 642.8 545.8C685.7 543.3 728.3 548.7 771.2 547.8C814 547 857 540 878.5 536.5L900 533L900 601L878.5 601C857 601 814 601 771.2 601C728.3 601 685.7 601 642.8 601C600 601 557 601 514.2 601C471.3 601 428.7 601 385.8 601C343 601 300 601 257.2 601C214.3 601 171.7 601 128.8 601C86 601 43 601 21.5 601L0 601Z" fill="#c62368"></path></svg>