<svg xmlns="http://www.w3.org/2000/svg">


  <symbol xmlns="http://www.w3.org/2000/svg" fill-rule="evenodd" baseProfile="basic" clip-rule="evenodd"
    viewBox="0 0 50 50" id="playStore">
    <linearGradient id="a" x1="1688.489" x2="1685.469" y1="-883.003" y2="-881.443"
      gradientTransform="matrix(11.64 0 0 22.55 -19615.32 19904.924)" gradientUnits="userSpaceOnUse">
      <stop offset="0" stop-color="#047ed6"></stop>
      <stop offset="1" stop-color="#50e6ff"></stop>
    </linearGradient>
    <path fill="url(#a)"
      d="M7.809 4.608c-.45.483-.708 1.227-.708 2.194v34.384c0 .967.258 1.711.725 2.177l.122.103L27.214 24.2v-.433L7.931 4.505l-.122.103z">
    </path>
    <linearGradient id="b" x1="1645.286" x2="1642.929" y1="-897.055" y2="-897.055"
      gradientTransform="matrix(9.145 0 0 7.7 -15001.938 6931.316)" gradientUnits="userSpaceOnUse">
      <stop offset="0" stop-color="#ffda1c"></stop>
      <stop offset="1" stop-color="#feb705"></stop>
    </linearGradient>
    <path fill="url(#b)"
      d="m33.623 30.647-6.426-6.428v-.45l6.428-6.428.139.086 7.603 4.321c2.177 1.227 2.177 3.249 0 4.493l-7.603 4.321a4.783 4.783 0 0 0-.141.085z">
    </path>
    <linearGradient id="c" x1="1722.978" x2="1720.622" y1="-889.412" y2="-886.355"
      gradientTransform="matrix(15.02 0 0 11.5775 -25848.943 10324.73)" gradientUnits="userSpaceOnUse">
      <stop offset="0" stop-color="#d9414f"></stop>
      <stop offset="1" stop-color="#8c193f"></stop>
    </linearGradient>
    <path fill="url(#c)" d="m33.762 30.561-6.565-6.567L7.809 43.382c.708.761 1.9.847 3.232.103l22.721-12.924"></path>
    <linearGradient id="d" x1="1721.163" x2="1722.215" y1="-891.39" y2="-890.024"
      gradientTransform="matrix(15.02 0 0 11.5715 -25848.943 10307.886)" gradientUnits="userSpaceOnUse">
      <stop offset="0" stop-color="#33c481"></stop>
      <stop offset="1" stop-color="#61e3a7"></stop>
    </linearGradient>
    <path fill="url(#d)" d="M33.762 17.429 11.041 4.522c-1.33-.761-2.524-.658-3.232.103l19.386 19.369 6.567-6.565z">
    </path>
  </symbol>
  <symbol id="cv" xmlns="http://www.w3.org/2000/svg" viewBox="0 0 50 50">
    <path fill="#b30b00" d="M38 42H10a4 4 0 0 1-4-4V10a4 4 0 0 1 4-4h28a4 4 0 0 1 4 4v28a4 4 0 0 1-4 4z"></path>
    <path fill="#fff"
      d="M35.241 26.799c-1.692-1.757-6.314-1.041-7.42-.911-1.627-1.562-2.734-3.45-3.124-4.101.586-1.757.976-3.515 1.041-5.402 0-1.627-.651-3.385-2.473-3.385-.651 0-1.237.391-1.562.911-.781 1.367-.456 4.101.781 6.899-.716 2.018-1.367 3.97-3.189 7.42-1.888.781-5.858 2.604-6.183 4.556-.13.586.065 1.172.521 1.627.455.392 1.04.587 1.626.587 2.408 0 4.751-3.32 6.379-6.118 1.367-.456 3.515-1.107 5.663-1.497 2.538 2.213 4.751 2.538 5.923 2.538 1.562 0 2.148-.651 2.343-1.237.325-.65.13-1.366-.326-1.887zm-1.627 1.106c-.065.456-.651.911-1.692.651a8.925 8.925 0 0 1-3.32-1.692c.846-.13 2.734-.325 4.101-.065.521.13 1.041.455.911 1.106zm-10.87-13.408c.13-.195.325-.325.521-.325.586 0 .716.716.716 1.302a14.291 14.291 0 0 1-.781 4.036c-.976-2.605-.781-4.427-.456-5.013zm-.13 12.627c.521-1.041 1.237-2.864 1.497-3.645.586.976 1.562 2.148 2.083 2.669 0 .065-2.018.456-3.58.976zm-3.84 2.604c-1.497 2.473-3.059 4.036-3.905 4.036-.13 0-.26-.065-.391-.13-.195-.13-.26-.325-.195-.586.195-.912 1.887-2.149 4.491-3.32z">
    </path>
  </symbol>

  <symbol xmlns="http://www.w3.org/2000/svg" id="github" viewBox="0 0 50 50">
    <linearGradient id="a" x1="4" x2="44" y1="23.508" y2="23.508" gradientUnits="userSpaceOnUse">
      <stop offset="0" stop-color="#4c4c4c"></stop>
      <stop offset="1" stop-color="#343434"></stop>
    </linearGradient>
    <path fill="#343434"
      d="M24 4C12.954 4 4 12.954 4 24c0 8.887 5.801 16.411 13.82 19.016h12.36C38.199 40.411 44 32.887 44 24c0-11.046-8.954-20-20-20z">
    </path>
    <path
      d="M30.01 41.996 30 36.198c0-.939-.22-1.856-.642-2.687 5.641-1.133 8.386-4.468 8.386-10.177 0-2.255-.665-4.246-1.976-5.92.1-.317.174-.645.22-.981.188-1.369-.023-2.264-.193-2.984l-.027-.116c-.186-.796-.409-1.364-.418-1.388l-.111-.282-.111-.282-.302-.032-.303-.032s-.199-.021-.501-.021c-.419 0-1.04.042-1.627.241l-.196.066c-.74.249-1.439.485-2.417 1.069-.286.171-.599.366-.934.584A20.188 20.188 0 0 0 24 12.69c-1.722 0-3.365.192-4.889.571-.339-.22-.654-.417-.942-.589-.978-.584-1.677-.819-2.417-1.069l-.196-.066c-.585-.199-1.207-.241-1.626-.241-.302 0-.501.021-.501.021l-.302.032-.3.031-.112.281-.113.283c-.01.026-.233.594-.419 1.391l-.027.115c-.17.719-.381 1.615-.193 2.983.048.346.125.685.23 1.011-1.285 1.666-1.936 3.646-1.936 5.89 0 5.695 2.748 9.028 8.397 10.17a6.005 6.005 0 0 0-.452 1.224 3.248 3.248 0 0 1-.538.137 4.963 4.963 0 0 1-.739.054c-.686 0-1.225-.134-1.435-.259-.313-.186-.872-.727-1.414-1.518-.463-.675-1.185-1.558-1.992-1.927-.698-.319-1.437-.502-2.029-.502-.138 0-.265.01-.376.028-.517.082-.949.366-1.184.78a1.313 1.313 0 0 0-.088 1.141c.219.548.851.985 1.343 1.255.242.133.765.619 1.07 1.109.229.368.335.63.482.992.087.215.183.449.313.732.47 1.022 1.937 1.924 2.103 2.023.806.483 2.161.638 3.157.683l.123.003h.001c.24 0 .57-.023 1.004-.071v2.613c.002.529-.537.649-1.25.638l.547.184A19.85 19.85 0 0 0 24 44c2.355 0 4.605-.428 6.703-1.176l.703-.262c-.711-.024-1.39-.14-1.396-.566z"
      opacity=".05"></path>
    <path
      d="M30.781 42.797c-.406.047-1.281-.109-1.281-.795v-5.804a5.445 5.445 0 0 0-.936-3.052c5.915-.957 8.679-4.093 8.679-9.812 0-2.237-.686-4.194-2.039-5.822.137-.365.233-.75.288-1.147.175-1.276-.016-2.086-.184-2.801l-.027-.116a10.279 10.279 0 0 0-.397-1.319l-.111-.282-.303-.032s-.178-.019-.449-.019c-.381 0-.944.037-1.466.215l-.196.066c-.714.241-1.389.468-2.321 1.024-.332.198-.702.431-1.101.694-1.533-.401-3.192-.605-4.937-.605-1.762 0-3.435.205-4.979.61a31.394 31.394 0 0 0-1.109-.699c-.932-.556-1.607-.784-2.321-1.024l-.196-.066c-.521-.177-1.085-.215-1.466-.215a4.68 4.68 0 0 0-.449.019l-.302.032-.113.283c-.009.022-.219.558-.397 1.319l-.027.116c-.169.715-.36 1.524-.184 2.8.056.407.156.801.298 1.174-1.327 1.62-1.999 3.567-1.999 5.795 0 5.703 2.766 8.838 8.686 9.806a5.445 5.445 0 0 0-.813 1.964 4.22 4.22 0 0 1-.891.256c-.263.04-.537.06-.814.06-.69 0-1.353-.129-1.69-.329-.44-.261-1.057-.914-1.572-1.665-.35-.51-1.047-1.417-1.788-1.755-.635-.29-1.298-.457-1.821-.457-.11 0-.21.008-.298.022-.366.058-.668.252-.828.534a.815.815 0 0 0-.059.708c.179.448.842.85 1.119 1.002.335.184.919.744 1.254 1.284.251.404.37.697.521 1.067.085.209.178.437.304.712.331.719 1.353 1.472 1.905 1.803.754.452 2.154.578 2.922.612l.111.002c.299 0 .8-.045 1.495-.135v3.177c0 .779-.991.81-1.234.81-.031 0 .503.184.503.184A19.946 19.946 0 0 0 24 44c2.178 0 4.269-.36 6.231-1.003 0 0 .581-.204.55-.2z"
      opacity=".07"></path>
    <path fill="#fff"
      d="M36.744 23.334c0-2.31-.782-4.226-2.117-5.728.145-.325.296-.761.371-1.309.172-1.25-.031-2-.203-2.734s-.375-1.25-.375-1.25-.922-.094-1.703.172-1.453.469-2.422 1.047c-.453.27-.909.566-1.27.806-1.543-.428-3.24-.648-5.025-.648-1.801 0-3.513.221-5.067.652a31.422 31.422 0 0 0-1.277-.811c-.969-.578-1.641-.781-2.422-1.047s-1.703-.172-1.703-.172-.203.516-.375 1.25-.375 1.484-.203 2.734c.077.562.233 1.006.382 1.333-1.31 1.493-2.078 3.397-2.078 5.704 0 5.983 3.232 8.714 9.121 9.435a4.972 4.972 0 0 0-1.303 2.691c-.387.17-.833.33-1.262.394-1.104.167-2.271 0-2.833-.333s-1.229-1.083-1.729-1.813c-.422-.616-1.031-1.331-1.583-1.583-.729-.333-1.438-.458-1.833-.396-.396.063-.583.354-.5.563.083.208.479.521.896.75.417.229 1.063.854 1.438 1.458.418.674.5 1.063.854 1.833.249.542 1.101 1.219 1.708 1.583.521.313 1.562.491 2.688.542.389.018 1.308-.096 2.083-.206v3.75c0 .639-.585 1.125-1.191 1.013 1.945.654 4.022.986 6.189.986 2.166 0 4.243-.332 6.19-.984-.605.111-1.19-.375-1.19-1.014v-5.804a4.97 4.97 0 0 0-1.373-3.425c5.846-.702 9.117-3.368 9.117-9.439zm-25.505 9.393c-.154-.079-.237-.225-.185-.328.052-.103.22-.122.374-.043s.237.225.185.328-.22.122-.374.043zm1.212.755c-.081.088-.255.06-.389-.062s-.177-.293-.096-.381c.081-.088.255-.06.389.062s.177.293.096.381zm.754 1.25c-.102.072-.275.005-.386-.15s-.118-.34-.016-.412.275-.005.386.15c.11.155.118.34.016.412zm1.083.941c-.069.112-.265.117-.437.012s-.256-.281-.187-.393c.069-.112.265-.117.437-.012s.256.281.187.393zm1.024.921c-.213-.026-.371-.159-.353-.297.017-.138.204-.228.416-.202.213.026.371.159.353.297-.017.137-.203.228-.416.202zm1.651.239c-.227-.013-.404-.143-.395-.289.009-.146.2-.255.427-.242.227.013.404.143.395.289-.009.147-.2.255-.427.242zm1.558-.156c-.242 0-.438-.126-.438-.281s.196-.281.438-.281.438.126.438.281-.197.281-.438.281z">
    </path>
  </symbol>
  <symbol xmlns="http://www.w3.org/2000/svg" viewBox="0 0 50 50" id="linkedin">
    <path fill="#0078d4" d="M42 37a5 5 0 0 1-5 5H11a5 5 0 0 1-5-5V11a5 5 0 0 1 5-5h26a5 5 0 0 1 5 5v26z"></path>
    <path
      d="M30 37V26.901c0-1.689-.819-2.698-2.192-2.698-.815 0-1.414.459-1.779 1.364-.017.064-.041.325-.031 1.114L26 37h-7V18h7v1.061C27.022 18.356 28.275 18 29.738 18c4.547 0 7.261 3.093 7.261 8.274L37 37h-7zm-19 0V18h3.457C12.454 18 11 16.528 11 14.499 11 12.472 12.478 11 14.514 11c2.012 0 3.445 1.431 3.486 3.479C18 16.523 16.521 18 14.485 18H18v19h-7z"
      opacity=".05"></path>
    <path
      d="M30.5 36.5v-9.599c0-1.973-1.031-3.198-2.692-3.198-1.295 0-1.935.912-2.243 1.677-.082.199-.071.989-.067 1.326L25.5 36.5h-6v-18h6v1.638c.795-.823 2.075-1.638 4.238-1.638 4.233 0 6.761 2.906 6.761 7.774L36.5 36.5h-6zm-19 0v-18h6v18h-6zm2.957-19c-1.713 0-2.957-1.262-2.957-3.001 0-1.738 1.268-2.999 3.014-2.999 1.724 0 2.951 1.229 2.986 2.989 0 1.749-1.268 3.011-3.015 3.011h-.028z"
      opacity=".07"></path>
    <path fill="#fff"
      d="M12 19h5v17h-5V19zm2.485-2h-.028C12.965 17 12 15.888 12 14.499 12 13.08 12.995 12 14.514 12c1.521 0 2.458 1.08 2.486 2.499C17 15.887 16.035 17 14.485 17zM36 36h-5v-9.099c0-2.198-1.225-3.698-3.192-3.698-1.501 0-2.313 1.012-2.707 1.99-.144.35-.101 1.318-.101 1.807v9h-5V19h5v2.616C25.721 20.5 26.85 19 29.738 19c3.578 0 6.261 2.25 6.261 7.274L36 36z">
    </path>
  </symbol>
  <symbol xmlns="http://www.w3.org/2000/svg" viewBox="0 0 50 50" id="email">
    <path fill="#4caf50" d="m45 16.2-5 2.75-5 4.75V40h7a3 3 0 0 0 3-3V16.2z"></path>
    <path fill="#1e88e5" d="m3 16.2 3.614 1.71L13 23.7V40H6a3 3 0 0 1-3-3V16.2z"></path>
    <path fill="#e53935" d="m35 11.2-11 8.25-11-8.25-1 5.8 1 6.7 11 8.25 11-8.25 1-6.7z"></path>
    <path fill="#c62828" d="M3 12.298V16.2l10 7.5V11.2L9.876 8.859A4.298 4.298 0 0 0 3 12.298z"></path>
    <path fill="#fbc02d" d="M45 12.298V16.2l-10 7.5V11.2l3.124-2.341A4.298 4.298 0 0 1 45 12.298z"></path>
  </symbol>
  <symbol xmlns="http://www.w3.org/2000/svg" viewBox="0 0 50 50" id="fondo">
    <radialGradient id="a" cx="48.477" cy="36.475" r="22.942" gradientUnits="userSpaceOnUse">
      <stop offset="0" stop-color="#bd8af5"></stop>
      <stop offset=".137" stop-color="#b88bf5"></stop>
      <stop offset=".309" stop-color="#a88ff3"></stop>
      <stop offset=".499" stop-color="#8f96f2"></stop>
      <stop offset=".702" stop-color="#6b9eef"></stop>
      <stop offset=".913" stop-color="#3eaaec"></stop>
      <stop offset="1" stop-color="#29afea"></stop>
    </radialGradient>
    <path fill="url(#a)" d="M40 6H8a2 2 0 0 0-2 2v32a2 2 0 0 0 2 2h32a2 2 0 0 0 2-2V8a2 2 0 0 0-2-2z"></path>
    <path fill="#436dcd" d="M32.065 23.065a3.002 3.002 0 0 0-4.185-.057L18 32.368V42h22a2 2 0 0 0 2-2v-7l-9.935-9.935z">
    </path>
    <circle cx="30.5" cy="14.5" r="3.5" fill="#fff"></circle>
    <linearGradient id="b" x1="23.91" x2="23.91" y1="18.133" y2="42.415" gradientUnits="userSpaceOnUse">
      <stop offset="0" stop-color="#124787"></stop>
      <stop offset=".923" stop-color="#173b75"></stop>
      <stop offset="1" stop-color="#173a73"></stop>
    </linearGradient>
    <path fill="#173b75"
      d="M8 42h32c.811 0 1.507-.485 1.82-1.18L20.065 19.065a3.002 3.002 0 0 0-4.185-.057L6 28.368V40a2 2 0 0 0 2 2z">
    </path>
  </symbol>

 <symbol id="pokedex" viewBox="0 0 50 50" xmlns="http://www.w3.org/2000/svg">
  <image width="40" height="40" x="5" y="5" href="/pokedexx.svg" />
</symbol>


  <symbol id="pinterest" xmlns="http://www.w3.org/2000/svg" width="80" height="80" viewBox="0 0 320 320">
   <g  transform="translate(20, 20)">
    <path fill="#CB1F27"
      d="M0 128.002c0 52.414 31.518 97.442 76.619 117.239c-.36-8.938-.064-19.668 2.228-29.393c2.461-10.391 16.47-69.748 16.47-69.748s-4.089-8.173-4.089-20.252c0-18.969 10.994-33.136 24.686-33.136c11.643 0 17.268 8.745 17.268 19.217c0 11.704-7.465 29.211-11.304 45.426c-3.207 13.578 6.808 24.653 20.203 24.653c24.252 0 40.586-31.149 40.586-68.055c0-28.054-18.895-49.052-53.262-49.052c-38.828 0-63.017 28.956-63.017 61.3c0 11.152 3.288 19.016 8.438 25.106c2.368 2.797 2.697 3.922 1.84 7.134c-.614 2.355-2.024 8.025-2.608 10.272c-.852 3.242-3.479 4.401-6.409 3.204c-17.884-7.301-26.213-26.886-26.213-48.902c0-36.361 30.666-79.961 91.482-79.961c48.87 0 81.035 35.364 81.035 73.325c0 50.213-27.916 87.726-69.066 87.726c-13.819 0-26.818-7.47-31.271-15.955c0 0-7.431 29.492-9.005 35.187c-2.714 9.869-8.026 19.733-12.883 27.421a127.897 127.897 0 0 0 36.277 5.249c70.684 0 127.996-57.309 127.996-128.005C256.001 57.309 198.689 0 128.005 0C57.314 0 0 57.309 0 128.002" />
      </g>
  </symbol>

  <symbol id="contact" xmlns="http://www.w3.org/2000/svg" viewBox="0 0 50 50">
    <circle cx="24" cy="24" r="20" fill="#2979ff"></circle>
    <circle cx="24" cy="19" r="4" fill="#2962ff"></circle>
    <path fill="#2962ff" d="M24 26s-9 0-9 5.727C15 35 16.636 35 24 35s9 0 9-3.273C33 26 24 26 24 26z"></path>
    <circle cx="24" cy="18" r="4" fill="#fff"></circle>
    <path fill="#fff" d="M24 25s-9 0-9 5.727C15 34 16.636 34 24 34s9 0 9-3.273C33 25 24 25 24 25z"></path>
  </symbol>
  <symbol id="skill" viewBox="0 0 50 50" xmlns="http://www.w3.org/2000/svg">
    <image width="40" height="40" href="/spotify.svg" />
  </symbol>

  <symbol id="setting" xmlns="http://www.w3.org/2000/svg" width="24" height="24" viewBox="0 0 24 24" fill="none"
    stroke="currentColor" stroke-width="2" stroke-linecap="round" stroke-linejoin="round"
    class="icon icon-tabler icons-tabler-outline icon-tabler-settings">
    <path stroke="none" d="M0 0h24v24H0z" fill="none"></path>
    <path
      d="M10.325 4.317c.426 -1.756 2.924 -1.756 3.35 0a1.724 1.724 0 0 0 2.573 1.066c1.543 -.94 3.31 .826 2.37 2.37a1.724 1.724 0 0 0 1.065 2.572c1.756 .426 1.756 2.924 0 3.35a1.724 1.724 0 0 0 -1.066 2.573c.94 1.543 -.826 3.31 -2.37 2.37a1.724 1.724 0 0 0 -2.572 1.065c-.426 1.756 -2.924 1.756 -3.35 0a1.724 1.724 0 0 0 -2.573 -1.066c-1.543 .94 -3.31 -.826 -2.37 -2.37a1.724 1.724 0 0 0 -1.065 -2.572c-1.756 -.426 -1.756 -2.924 0 -3.35a1.724 1.724 0 0 0 1.066 -2.573c-.94 -1.543 .826 -3.31 2.37 -2.37c1 .608 2.296 .07 2.572 -1.065z">
    </path>
    <path d="M9 12a3 3 0 1 0 6 0a3 3 0 0 0 -6 0"></path>
  </symbol>


  <symbol version="1.1" xmlns="http://www.w3.org/2000/svg" xmlns:xlink="http://www.w3.org/1999/xlink"
    viewBox="0 0 569 512" id="react">
    <g fill="none" fill-rule="evenodd">
      <g transform="translate(-227, -256)" fill="#58C4DC" fill-rule="nonzero">
        <g transform="translate(227, 256)">
          <path
            d="M285.5,201 C255.400481,201 231,225.400481 231,255.5 C231,285.599519 255.400481,310 285.5,310 C315.599519,310 340,285.599519 340,255.5 C340,225.400481 315.599519,201 285.5,201"
            id="Path"></path>
          <path
            d="M568.959856,255.99437 C568.959856,213.207656 529.337802,175.68144 466.251623,150.985214 C467.094645,145.423543 467.85738,139.922107 468.399323,134.521063 C474.621631,73.0415145 459.808523,28.6686204 426.709856,9.5541429 C389.677085,-11.8291748 337.36955,3.69129898 284.479928,46.0162134 C231.590306,3.69129898 179.282771,-11.8291748 142.25,9.5541429 C109.151333,28.6686204 94.3382249,73.0415145 100.560533,134.521063 C101.102476,139.922107 101.845139,145.443621 102.708233,151.02537 C97.4493791,153.033193 92.2908847,155.161486 87.3331099,157.39017 C31.0111824,182.708821 0,217.765415 0,255.99437 C0,298.781084 39.6220545,336.307301 102.708233,361.003527 C101.845139,366.565197 101.102476,372.066633 100.560533,377.467678 C94.3382249,438.947226 109.151333,483.32012 142.25,502.434597 C153.629683,508.887578 166.52439,512.186771 179.603923,511.991836 C210.956328,511.991836 247.567589,495.487529 284.479928,465.972527 C321.372196,495.487529 358.003528,511.991836 389.396077,511.991836 C402.475265,512.183856 415.36922,508.884856 426.75,502.434597 C459.848667,483.32012 474.661775,438.947226 468.439467,377.467678 C467.897524,372.066633 467.134789,366.565197 466.291767,361.003527 C529.377946,336.347457 569,298.761006 569,255.99437 M389.155214,27.1025182 C397.565154,26.899606 405.877839,28.9368502 413.241569,33.0055186 C436.223966,46.2772304 446.540955,82.2775015 441.522965,131.770345 C441.181741,135.143488 440.780302,138.556788 440.298575,141.990165 C414.066922,134.08804 387.205771,128.452154 360.010724,125.144528 C343.525021,103.224055 325.192524,82.7564475 305.214266,63.9661533 C336.586743,39.7116483 366.032313,27.1025182 389.135142,27.1025182 M378.356498,310.205598 C368.204912,327.830733 357.150626,344.919965 345.237759,361.405091 C325.045049,363.479997 304.758818,364.51205 284.459856,364.497299 C264.167589,364.51136 243.888075,363.479308 223.702025,361.405091 C211.820914,344.919381 200.80007,327.83006 190.683646,310.205598 C180.532593,292.629285 171.306974,274.534187 163.044553,255.99437 C171.306974,237.454554 180.532593,219.359455 190.683646,201.783142 C200.784121,184.229367 211.770999,167.201087 223.601665,150.764353 C243.824636,148.63809 264.145559,147.579168 284.479928,147.591877 C304.772146,147.579725 325.051559,148.611772 345.237759,150.68404 C357.109048,167.14607 368.136094,184.201112 378.27621,201.783142 C388.419418,219.363718 397.644825,237.458403 405.915303,255.99437 C397.644825,274.530337 388.419418,292.625022 378.27621,310.205598 M419.724813,290.127366 C426.09516,307.503536 431.324985,325.277083 435.380944,343.334682 C417.779633,348.823635 399.836793,353.149774 381.668372,356.285142 C388.573127,345.871232 395.263781,335.035679 401.740334,323.778483 C408.143291,312.655143 414.144807,301.431411 419.805101,290.207679 M246.363271,390.377981 C258.848032,391.140954 271.593728,391.582675 284.5,391.582675 C297.406272,391.582675 310.232256,391.140954 322.737089,390.377981 C310.880643,404.583418 298.10766,417.997563 284.5,430.534446 C270.921643,417.999548 258.18192,404.585125 246.363271,390.377981 Z M187.311556,356.244986 C169.137286,353.123646 151.187726,348.810918 133.578912,343.334682 C137.618549,325.305649 142.828222,307.559058 149.174827,290.207679 C154.754833,301.431411 160.736278,312.655143 167.239594,323.778483 C173.74291,334.901824 180.467017,345.864539 187.311556,356.285142 M149.174827,221.760984 C142.850954,204.473938 137.654787,186.794745 133.619056,168.834762 C151.18418,163.352378 169.085653,159.013101 187.211197,155.844146 C180.346585,166.224592 173.622478,176.986525 167.139234,188.210257 C160.65599,199.433989 154.734761,210.517173 149.074467,221.760984 M322.616657,121.590681 C310.131896,120.827708 297.3862,120.385987 284.379568,120.385987 C271.479987,120.385987 258.767744,120.787552 246.242839,121.590681 C258.061488,107.383537 270.801211,93.9691137 284.379568,81.4342157 C297.99241,93.9658277 310.765727,107.380324 322.616657,121.590681 Z M401.70019,188.210257 C395.196875,176.939676 388.472767,166.09743 381.527868,155.68352 C399.744224,158.819049 417.734224,163.151949 435.380944,168.654058 C431.331963,186.680673 426.122466,204.426664 419.785029,221.781062 C414.205023,210.55733 408.203506,199.333598 401.720262,188.230335 M127.517179,131.790423 C122.438973,82.3176579 132.816178,46.2973086 155.778503,33.0255968 C163.144699,28.9632474 171.455651,26.9264282 179.864858,27.1225964 C202.967687,27.1225964 232.413257,39.7317265 263.785734,63.9862316 C243.794133,82.7898734 225.448298,103.270812 208.949132,125.204763 C181.761691,128.528025 154.90355,134.14313 128.661281,141.990165 C128.199626,138.556788 127.778115,135.163566 127.456963,131.790423 M98.4529773,182.106474 C101.54406,180.767925 104.695358,179.429376 107.906872,178.090828 C114.220532,204.735668 122.781793,230.7969 133.498624,255.99437 C122.761529,281.241316 114.193296,307.357063 107.8868,334.058539 C56.7434387,313.076786 27.0971497,284.003505 27.0971497,255.99437 C27.0971497,229.450947 53.1907013,202.526037 98.4529773,182.106474 Z M155.778503,478.963143 C132.816178,465.691432 122.438973,429.671082 127.517179,380.198317 C127.838331,376.825174 128.259842,373.431953 128.721497,369.978497 C154.953686,377.878517 181.814655,383.514365 209.009348,386.824134 C225.500295,408.752719 243.832321,429.233234 263.805806,448.042665 C220.069,481.834331 180.105722,492.97775 155.838719,478.963143 M441.502893,380.198317 C446.520883,429.691161 436.203894,465.691432 413.221497,478.963143 C388.974566,493.017906 348.991216,481.834331 305.274481,448.042665 C325.241364,429.232737 343.566681,408.752215 360.050868,386.824134 C387.245915,383.516508 414.107066,377.880622 440.338719,369.978497 C440.820446,373.431953 441.221885,376.825174 441.563109,380.198317 M461.193488,334.018382 C454.869166,307.332523 446.294494,281.231049 435.561592,255.99437 C446.289797,230.744081 454.857778,204.629101 461.173416,177.930202 C512.216417,198.911955 541.942994,227.985236 541.942994,255.99437 C541.942994,284.003505 512.296705,313.076786 461.153344,334.058539"
            id="Shape"></path>
        </g>
      </g>
    </g>
  </symbol>

  <symbol id="astro" viewBox="0 0 256 366" xmlns="http://www.w3.org/2000/svg" preserveAspectRatio="xMidYMid">
    <path
      d="M182.022 9.147c2.982 3.702 4.502 8.697 7.543 18.687L256 246.074a276.467 276.467 0 0 0-79.426-26.891L133.318 73.008a5.63 5.63 0 0 0-10.802.017L79.784 219.11A276.453 276.453 0 0 0 0 246.04L66.76 27.783c3.051-9.972 4.577-14.959 7.559-18.654a24.541 24.541 0 0 1 9.946-7.358C88.67 0 93.885 0 104.314 0h47.683c10.443 0 15.664 0 20.074 1.774a24.545 24.545 0 0 1 9.95 7.373Z" />
    <path fill="#FF5D01"
      d="M189.972 256.46c-10.952 9.364-32.812 15.751-57.992 15.751-30.904 0-56.807-9.621-63.68-22.56-2.458 7.415-3.009 15.903-3.009 21.324 0 0-1.619 26.623 16.898 45.14 0-9.615 7.795-17.41 17.41-17.41 16.48 0 16.46 14.378 16.446 26.043l-.001 1.041c0 17.705 10.82 32.883 26.21 39.28a35.685 35.685 0 0 1-3.588-15.647c0-16.886 9.913-23.173 21.435-30.48 9.167-5.814 19.353-12.274 26.372-25.232a47.588 47.588 0 0 0 5.742-22.735c0-5.06-.786-9.938-2.243-14.516Z" />
  </symbol>

  <symbol id="css" xmlns="http://www.w3.org/2000/svg" viewBox="0 0 512 512">
    <path fill="#264de4" d="M71.357 460.819 30.272 0h451.456l-41.129 460.746L255.724 512z" />
    <path fill="#2965f1" d="m405.388 431.408 35.148-393.73H256v435.146z" />
    <path fill="#ebebeb"
      d="m124.46 208.59 5.065 56.517H256V208.59zm-5.041-57.875H256V94.197H114.281zM256 355.372l-.248.066-62.944-16.996-4.023-45.076h-56.736l7.919 88.741 115.772 32.14.26-.073z" />
    <path fill="#fff"
      d="M255.805 208.59v56.517H325.4l-6.56 73.299-63.035 17.013v58.8l115.864-32.112.85-9.549 13.28-148.792 1.38-15.176 10.203-114.393H255.805v56.518h79.639L330.3 208.59z" />
  </symbol>

  <symbol id="html" xmlns="http://www.w3.org/2000/svg" viewBox="0 0 452 520">
    <path fill="#e34f26" d="M41 460L0 0h451l-41 460-185 52" />
    <path fill="#ef652a" d="M226 472l149-41 35-394H226" />
    <path fill="#ecedee" d="M226 208h-75l-5-58h80V94H84l15 171h127zm0 147l-64-17-4-45h-56l7 89 117 32z" />
    <path fill="#fff" d="M226 265h69l-7 73-62 17v59l115-32 16-174H226zm0-171v56h136l5-56z" />
  </symbol>

  <symbol id="javacript" xmlns="http://www.w3.org/2000/svg" viewBox="0 0 1052 1052">
    <path fill="#f0db4f" d="M0 0h1052v1052H0z" />
    <path
      d="M965.9 801.1c-7.7-48-39-88.3-131.7-125.9-32.2-14.8-68.1-25.399-78.8-49.8-3.8-14.2-4.3-22.2-1.9-30.8 6.9-27.9 40.2-36.6 66.6-28.6 17 5.7 33.1 18.801 42.8 39.7 45.4-29.399 45.3-29.2 77-49.399-11.6-18-17.8-26.301-25.4-34-27.3-30.5-64.5-46.2-124-45-10.3 1.3-20.699 2.699-31 4-29.699 7.5-58 23.1-74.6 44-49.8 56.5-35.6 155.399 25 196.1 59.7 44.8 147.4 55 158.6 96.9 10.9 51.3-37.699 67.899-86 62-35.6-7.4-55.399-25.5-76.8-58.4-39.399 22.8-39.399 22.8-79.899 46.1 9.6 21 19.699 30.5 35.8 48.7 76.2 77.3 266.899 73.5 301.1-43.5 1.399-4.001 10.6-30.801 3.199-72.101zm-394-317.6h-98.4c0 85-.399 169.4-.399 254.4 0 54.1 2.8 103.7-6 118.9-14.4 29.899-51.7 26.2-68.7 20.399-17.3-8.5-26.1-20.6-36.3-37.699-2.8-4.9-4.9-8.7-5.601-9-26.699 16.3-53.3 32.699-80 49 13.301 27.3 32.9 51 58 66.399 37.5 22.5 87.9 29.4 140.601 17.3 34.3-10 63.899-30.699 79.399-62.199 22.4-41.3 17.6-91.3 17.4-146.6.5-90.2 0-180.4 0-270.9z"
      fill="#323330" />
  </symbol>

  <symbol id="sass" viewBox="0 0 512 384" xmlns="http://www.w3.org/2000/svg">
    <path fill="#CF649A"
      d="M441 221c-18 0-34 4-47 10-5-9-9-17-10-24s-2-11-1-20 6-21 6-22c0 0-1-5-11-5-11 0-20 2-21 5l-4 15c-2 9-20 43-31 60-4-7-7-13-7-17-1-8-2-12-1-21s6-20 6-21-1-6-11-6c-11 0-20 2-21 5l-4 15-34 76-8 18c-2 4 0 0 0 1l-3 5-4 5s-1-7 1-16c3-19 12-49 12-51 0 0 2-5-6-8-7-3-9 2-10 2l-1 1s8-34-16-34c-14 0-35 17-45 31l-34 19-17 9-1-1c-29-31-82-52-79-93 0-15 6-54 101-102 79-39 141-28 152-4 16 34-33 97-115 106-31 3-47-9-51-13-4-5-5-5-7-4s-1 5 0 8c3 6 13 17 30 23 15 5 51 8 95-9 49-19 88-72 77-117-12-45-87-60-157-35-43 15-88 39-121 70-39 36-45 68-43 81 10 47 74 78 100 100l-3 2c-13 7-63 33-75 60-14 31 2 53 13 56 33 10 68-7 86-34 18-28 16-64 8-80l-1-1 11-6 18-10c-3 9-5 19-6 34-2 17 6 40 15 49 4 4 9 4 12 4 11 0 16-9 22-20l13-28s-8 41 13 41c7 0 15-9 18-14l1-1 1-2 20-37 25-57 5 20c2 8 7 16 10 24l-4 7-8 10c-10 12-23 26-24 30-2 5-2 8 2 11 3 2 8 2 13 2l18-4 17-9c10-7 16-18 15-32 0-7-3-15-6-22l3-4c16-23 28-49 28-49l5 21 9 20a89 89 0 0 0-27 36c-6 17-2 24 7 26 4 1 10-1 14-3 5-1 11-4 17-8 10-8 20-18 19-32 0-6-2-13-4-19 12-5 29-8 49-5 45 5 54 33 52 44-2 12-11 18-14 20l-4 4c1 2 2 2 5 2 3-1 23-10 24-31 1-28-25-58-71-57zM97 336c-14 16-35 23-44 17-9-5-6-29 13-46 11-10 25-20 34-26l9-5 1-1 3-1c6 24 0 45-16 62zm108-73c-5 13-16 45-22 43-6-1-9-26-2-50 4-12 13-26 18-32 8-9 17-12 19-8 3 5-10 39-13 47zm89 43-5 1v-2l16-17 9-11v1c0 14-14 24-20 28zm68-16c-2-1-1-5 4-16 2-5 7-13 15-20l2 9c0 18-13 24-21 27z" />
  </symbol>


  <symbol id="figma" viewBox="0 0 54 80" fill="none" xmlns="http://www.w3.org/2000/svg">
    <g clip-path="url(#clip0_912_3)">
      <path
        d="M13.3333 80.0002C20.6933 80.0002 26.6667 74.0268 26.6667 66.6668V53.3335H13.3333C5.97333 53.3335 0 59.3068 0 66.6668C0 74.0268 5.97333 80.0002 13.3333 80.0002Z"
        fill="#0ACF83" />
      <path
        d="M0 39.9998C0 32.6398 5.97333 26.6665 13.3333 26.6665H26.6667V53.3332H13.3333C5.97333 53.3332 0 47.3598 0 39.9998Z"
        fill="#A259FF" />
      <path d="M0 13.3333C0 5.97333 5.97333 0 13.3333 0H26.6667V26.6667H13.3333C5.97333 26.6667 0 20.6933 0 13.3333Z"
        fill="#F24E1E" />
      <path
        d="M26.6667 0H40.0001C47.3601 0 53.3334 5.97333 53.3334 13.3333C53.3334 20.6933 47.3601 26.6667 40.0001 26.6667H26.6667V0Z"
        fill="#FF7262" />
      <path
        d="M53.3334 39.9998C53.3334 47.3598 47.3601 53.3332 40.0001 53.3332C32.6401 53.3332 26.6667 47.3598 26.6667 39.9998C26.6667 32.6398 32.6401 26.6665 40.0001 26.6665C47.3601 26.6665 53.3334 32.6398 53.3334 39.9998Z"
        fill="#1ABCFE" />
    </g>
    <defs>
      <clipPath id="clip0_912_3">
        <rect width="53.3333" height="80" fill="white" />
      </clipPath>
    </defs>
  </symbol>

  <symbol id="supabase" viewBox="0 0 109 113" fill="none" xmlns="http://www.w3.org/2000/svg">
    <path
      d="M63.7076 110.284C60.8481 113.885 55.0502 111.912 54.9813 107.314L53.9738 40.0627L99.1935 40.0627C107.384 40.0627 111.952 49.5228 106.859 55.9374L63.7076 110.284Z"
      fill="url(#paint0_linear)" />
    <path
      d="M63.7076 110.284C60.8481 113.885 55.0502 111.912 54.9813 107.314L53.9738 40.0627L99.1935 40.0627C107.384 40.0627 111.952 49.5228 106.859 55.9374L63.7076 110.284Z"
      fill="url(#paint1_linear)" fill-opacity="0.2" />
    <path
      d="M45.317 2.07103C48.1765 -1.53037 53.9745 0.442937 54.0434 5.041L54.4849 72.2922H9.83113C1.64038 72.2922 -2.92775 62.8321 2.1655 56.4175L45.317 2.07103Z"
      fill="#3ECF8E" />
    <defs>
      <linearGradient id="paint0_linear" x1="53.9738" y1="54.974" x2="94.1635" y2="71.8295"
        gradientUnits="userSpaceOnUse">
        <stop stop-color="#249361" />
        <stop offset="1" stop-color="#3ECF8E" />
      </linearGradient>
      <linearGradient id="paint1_linear" x1="36.1558" y1="30.578" x2="54.4844" y2="65.0806"
        gradientUnits="userSpaceOnUse">
        <stop />
        <stop offset="1" stop-opacity="0" />
      </linearGradient>
    </defs>
  </symbol>

  <symbol id="daisyui" viewBox="0 0 1024 1024" xmlns="http://www.w3.org/2000/svg" fill="none">
    <rect width="512" height="256" x="256" y="670.72" fill="#1AD1A5" rx="128" />
    <circle cx="512" cy="353.28" r="256" fill="#fff" />
    <circle cx="512" cy="353.28" r="261" stroke="#000" stroke-opacity=".2" stroke-width="10" />
    <circle cx="512" cy="353.28" r="114.688" fill="#FF9903" />
  </symbol>


  <symbol id="vite" viewBox="0 0 410 404" fill="none" xmlns="http://www.w3.org/2000/svg">
    <path
      d="M399.641 59.5246L215.643 388.545C211.844 395.338 202.084 395.378 198.228 388.618L10.5816 59.5563C6.38075 52.1896 12.6801 43.2665 21.028 44.7586L205.223 77.6824C206.398 77.8924 207.601 77.8904 208.776 77.6763L389.119 44.8058C397.439 43.2894 403.768 52.1434 399.641 59.5246Z"
      fill="url(#paint0_linear_389_12)" />
    <path
      d="M292.965 1.57446L156.801 28.2553C154.563 28.6938 152.906 30.5904 152.771 32.8665L144.395 174.33C144.198 177.662 147.258 180.248 150.51 179.498L188.42 170.749C191.967 169.931 195.172 173.055 194.443 176.622L183.18 231.775C182.422 235.487 185.907 238.661 189.532 237.56L212.947 230.446C216.577 229.344 220.065 232.527 219.297 236.242L201.398 322.875C200.278 328.294 207.486 331.249 210.492 326.603L212.5 323.5L323.454 102.072C325.312 98.3646 322.108 94.1371 318.036 94.9229L279.014 102.454C275.347 103.161 272.227 99.7461 273.262 96.1584L298.731 7.86695C299.767 4.2732 296.636 0.855238 292.965 1.57446Z"
      fill="url(#paint1_linear_389_12)" />
    <defs>
      <linearGradient id="paint0_linear_389_12" x1="6.00005" y1="32.9999" x2="235" y2="344"
        gradientUnits="userSpaceOnUse">
        <stop stop-color="#41D1FF" />
        <stop offset="1" stop-color="#BD34FE" />
      </linearGradient>
      <linearGradient id="paint1_linear_389_12" x1="194.651" y1="8.81824" x2="236.076" y2="292.989"
        gradientUnits="userSpaceOnUse">
        <stop stop-color="#FFEA83" />
        <stop offset="0.0833333" stop-color="#FFDD35" />
        <stop offset="1" stop-color="#FFA800" />
      </linearGradient>
    </defs>
  </symbol>




  <symbol id="tailwind" xmlns="http://www.w3.org/2000/svg" fill="none" viewBox="0 0 54 33">
    <g clip-path="url(#a)">
      <path fill="#38bdf8" fill-rule="evenodd"
        d="M27 0c-7.2 0-11.7 3.6-13.5 10.8 2.7-3.6 5.85-4.95 9.45-4.05 2.054.513 3.522 2.004 5.147 3.653C30.744 13.09 33.808 16.2 40.5 16.2c7.2 0 11.7-3.6 13.5-10.8-2.7 3.6-5.85 4.95-9.45 4.05-2.054-.513-3.522-2.004-5.147-3.653C36.756 3.11 33.692 0 27 0zM13.5 16.2C6.3 16.2 1.8 19.8 0 27c2.7-3.6 5.85-4.95 9.45-4.05 2.054.514 3.522 2.004 5.147 3.653C17.244 29.29 20.308 32.4 27 32.4c7.2 0 11.7-3.6 13.5-10.8-2.7 3.6-5.85 4.95-9.45 4.05-2.054-.513-3.522-2.004-5.147-3.653C23.256 19.31 20.192 16.2 13.5 16.2z"
        clip-rule="evenodd"></path>
    </g>
    <defs>
      <clipPath id="a">
        <path fill="#fff" d="M0 0h54v32.4H0z"></path>
      </clipPath>
    </defs>
  </symbol>

  <symbol id="suite" viewBox="0 0 100 150" fill="none" xmlns="http://www.w3.org/2000/svg">
    <path d="M114 37L60 6L22 28L98 110L60 132L6 101" stroke="url(#paint0_linear_390_16)" stroke-width="12"
      stroke-linecap="round" stroke-linejoin="round" />
    <path d="M6 101L44 78L6 37L6 80" stroke="url(#paint1_linear_390_16)" stroke-width="12" stroke-linecap="round"
      stroke-linejoin="round" />
    <path d="M114 37L76 60L114 101V58" stroke="url(#paint2_linear_390_16)" stroke-width="12" stroke-linecap="round"
      stroke-linejoin="round" />
    <path
      d="M6 104C7.65685 104 9 102.657 9 101C9 99.3431 7.65685 98 6 98C4.34315 98 3 99.3431 3 101C3 102.657 4.34315 104 6 104Z"
      fill="#6594ED" />
    <path
      d="M114 40C115.657 40 117 38.6569 117 37C117 35.3431 115.657 34 114 34C112.343 34 111 35.3431 111 37C111 38.6569 112.343 40 114 40Z"
      fill="#6594ED" />
    <defs>
      <linearGradient id="paint0_linear_390_16" x1="7737.83" y1="1589.32" x2="3996.15" y2="14187.6"
        gradientUnits="userSpaceOnUse">
        <stop stop-color="#6594ED" />
        <stop offset="1" stop-color="#316BD9" />
      </linearGradient>
      <linearGradient id="paint1_linear_390_16" x1="-2525.83" y1="101" x2="-781.257" y2="-4486.37"
        gradientUnits="userSpaceOnUse">
        <stop stop-color="#EC5060" />
        <stop offset="1" stop-color="#EA7480" />
      </linearGradient>
      <linearGradient id="paint2_linear_390_16" x1="2645.83" y1="37" x2="897.225" y2="4704.54"
        gradientUnits="userSpaceOnUse">
        <stop stop-color="#EC5060" />
        <stop offset="1" stop-color="#EA7480" />
      </linearGradient>
    </defs>
  </symbol>

</svg>