<svg width="129" height="130" viewBox="0 0 129 130" fill="none" xmlns="http://www.w3.org/2000/svg">
<path d="M54.164 5.84294C60.5777 2.21726 68.4223 2.21726 74.836 5.84294V5.84294C77.9119 7.58174 81.3781 8.51648 84.9111 8.56058V8.56058C92.2593 8.65229 99.0613 12.6297 102.793 18.9606V18.9606C104.591 22.011 107.142 24.5885 110.18 26.4071V26.4071C116.502 30.1916 120.415 37.0517 120.505 44.4197V44.4197C120.549 47.9707 121.477 51.4851 123.204 54.588V54.588C126.807 61.06 126.807 68.94 123.204 75.412V75.412C121.477 78.5149 120.549 82.0293 120.505 85.5803V85.5803C120.415 92.9483 116.502 99.8084 110.18 103.593V103.593C107.142 105.411 104.591 107.989 102.793 111.039V111.039C99.0613 117.37 92.2593 121.348 84.9111 121.439V121.439C81.3781 121.484 77.9119 122.418 74.836 124.157V124.157C68.4223 127.783 60.5777 127.783 54.164 124.157V124.157C51.0881 122.418 47.6219 121.484 44.0889 121.439V121.439C36.7407 121.348 29.9387 117.37 26.2072 111.039V111.039C24.4092 107.989 21.8583 105.411 18.8201 103.593V103.593C12.4978 99.8084 8.58542 92.9483 8.49486 85.5803V85.5803C8.45122 82.0293 7.52292 78.5149 5.79572 75.412V75.412C2.19314 68.94 2.19314 61.06 5.79572 54.588V54.588C7.52292 51.4851 8.45122 47.9707 8.49486 44.4197V44.4197C8.58542 37.0517 12.4978 30.1916 18.8201 26.4071V26.4071C21.8583 24.5885 24.4092 22.011 26.2072 18.9606V18.9606C29.9387 12.6297 36.7407 8.65229 44.0889 8.56058V8.56058C47.6219 8.51648 51.0881 7.58174 54.164 5.84294V5.84294Z" fill="#E1F6E7"/>
<path d="M54.164 5.84294C60.5777 2.21726 68.4223 2.21726 74.836 5.84294V5.84294C77.9119 7.58174 81.3781 8.51648 84.9111 8.56058V8.56058C92.2593 8.65229 99.0613 12.6297 102.793 18.9606V18.9606C104.591 22.011 107.142 24.5885 110.18 26.4071V26.4071C116.502 30.1916 120.415 37.0517 120.505 44.4197V44.4197C120.549 47.9707 121.477 51.4851 123.204 54.588V54.588C126.807 61.06 126.807 68.94 123.204 75.412V75.412C121.477 78.5149 120.549 82.0293 120.505 85.5803V85.5803C120.415 92.9483 116.502 99.8084 110.18 103.593V103.593C107.142 105.411 104.591 107.989 102.793 111.039V111.039C99.0613 117.37 92.2593 121.348 84.9111 121.439V121.439C81.3781 121.484 77.9119 122.418 74.836 124.157V124.157C68.4223 127.783 60.5777 127.783 54.164 124.157V124.157C51.0881 122.418 47.6219 121.484 44.0889 121.439V121.439C36.7407 121.348 29.9387 117.37 26.2072 111.039V111.039C24.4092 107.989 21.8583 105.411 18.8201 103.593V103.593C12.4978 99.8084 8.58542 92.9483 8.49486 85.5803V85.5803C8.45122 82.0293 7.52292 78.5149 5.79572 75.412V75.412C2.19314 68.94 2.19314 61.06 5.79572 54.588V54.588C7.52292 51.4851 8.45122 47.9707 8.49486 44.4197V44.4197C8.58542 37.0517 12.4978 30.1916 18.8201 26.4071V26.4071C21.8583 24.5885 24.4092 22.011 26.2072 18.9606V18.9606C29.9387 12.6297 36.7407 8.65229 44.0889 8.56058V8.56058C47.6219 8.51648 51.0881 7.58174 54.164 5.84294V5.84294Z" fill="#E1F6E7"/>
<circle cx="64.5" cy="104.5" r="11.5" fill="#D5D2D2"/>
</svg>
