<svg width="38" height="33" viewBox="0 0 38 33" fill="none" xmlns="http://www.w3.org/2000/svg">
<g filter="url(#filter0_d_367_2)">
<path d="M32.4979 23.2386C33.2757 23.2233 33.7482 22.3754 33.3385 21.7141C30.9843 17.9142 24.7495 7.71315 21.6652 1.35271C21.1607 0.312199 17.2178 0.398401 16.5852 1.36642C12.4087 7.7573 6.94264 18.462 4.99786 22.3367C4.66177 23.0063 5.16546 23.7747 5.91452 23.7601L32.4979 23.2386Z" fill="#98A8B8"/>
<path d="M18.5834 0.0687942L18.8457 0.0949054L18.9202 0.109072L18.9908 0.123315L19.061 0.11803L19.1352 0.112669L19.3267 0.116726L19.5074 0.167879L19.5783 0.193839L19.6334 0.216199L19.6842 0.219109L19.7389 0.218036L19.8009 0.193378L19.8785 0.164507L20.0379 0.122311C20.0936 0.112273 20.1508 0.106237 20.2095 0.107224L20.2838 0.109673L20.358 0.108218L20.5539 0.135631L20.735 0.210217L20.8022 0.24797L20.8416 0.266731L20.8809 0.273776L20.9552 0.280132L21.2694 0.363829L21.3365 0.397676L21.4074 0.427541L21.5616 0.522191L21.6891 0.644716L21.741 0.702302L21.789 0.759965L21.8811 0.871463L21.9289 0.921315L21.9729 0.975149L22.1262 1.21828L22.1835 1.35L22.216 1.41578L22.2966 1.53922L22.3701 1.70188L22.4125 1.87295L22.4219 1.95091L22.435 2.02488L22.4353 2.0366L22.4517 2.07925L22.4636 2.08683L22.5386 2.12834L22.6615 2.21579C22.7367 2.28303 22.8003 2.36797 22.8384 2.47018L22.8768 2.63743L22.877 2.64524L22.8889 2.65673L23.0684 2.84465L23.1671 3.09667L23.1935 3.24462L23.2208 3.44334L23.2263 3.52528L23.2266 3.53699L23.2306 3.54473L23.2747 3.60247L23.3631 3.72576L23.4033 3.78357L23.4475 3.84522L23.5365 4.00366L23.5908 4.17841L23.5912 4.20184L23.6229 4.22076L23.8255 4.3926L23.9292 4.49996L24.0705 4.73552L24.1146 4.98861L24.1123 5.0746L24.1095 5.12936L24.1218 5.15647L24.1543 5.22225L24.1665 5.24545L24.2145 5.30311L24.2586 5.36085L24.2745 5.37617L24.338 5.42181L24.4014 5.47135L24.5326 5.58599L24.6371 5.73241L24.6734 5.79421L24.7099 5.85991L24.7931 6.12005L24.7822 6.35859L24.7643 6.44099L24.7763 6.45638L24.8204 6.51412L24.8684 6.57178L24.9164 6.62554L24.9641 6.67149L25.0237 6.72111L25.0872 6.77066L25.2625 6.94303L25.3105 7.0007L25.3546 7.05843C25.482 7.21108 25.5077 7.3849 25.4968 7.53621C25.5303 7.55971 25.5654 7.58267 25.596 7.6124L25.7325 7.79726L25.7649 7.85914L25.8014 7.92484L25.854 8.01758L25.8943 8.0793L25.9307 8.1411L26.0495 8.42398L26.0583 8.47459L26.1138 8.51648L26.2295 8.63924C26.327 8.77099 26.3659 8.92813 26.3554 9.07826C26.4626 9.17123 26.5329 9.28856 26.5652 9.41796L26.5875 9.55817L26.5878 9.5738L26.5918 9.57763L26.7993 9.80016L26.8799 9.9236L26.9893 10.1246L27.0179 10.1905L27.0505 10.2563L27.1364 10.4538L27.169 10.5235L27.1731 10.5313L27.2171 10.5851L27.2651 10.6427L27.297 10.6734L27.3605 10.7229L27.42 10.7686L27.5275 10.872C27.5581 10.9091 27.5826 10.9498 27.6041 10.9916L27.6797 11.2636L27.6852 11.3417L27.6868 11.4237L27.7001 11.5055L27.7133 11.5834L27.7178 11.6106L27.7418 11.6414L27.766 11.6761L27.8292 11.7139L27.9043 11.7554L28.0668 11.8773L28.1992 12.0505L28.2356 12.1162L28.272 12.178L28.3575 12.356L28.3863 12.4258L28.4149 12.4916L28.423 12.5071L28.467 12.561L28.5112 12.6187L28.629 12.8508L28.6571 13.0886L28.654 13.1277L28.6659 13.1392C28.7055 13.1799 28.7391 13.2265 28.7701 13.2739L28.8473 13.4208L28.8555 13.4441L28.9186 13.4741L29.1286 13.6224L29.2777 13.8539L29.3064 13.9237L29.3312 13.9935L29.3943 14.2189L29.4031 14.2695L29.4467 14.3038L29.6384 14.5149L29.6786 14.5727L29.7189 14.6345L29.8446 14.8703L29.8694 14.9363L29.8981 15.006L29.9606 15.2079L29.9778 15.2858L29.9949 15.3597L29.999 15.3713L30.0354 15.4331L30.0679 15.4989L30.1618 15.7041L30.1866 15.7739L30.2033 15.8283L30.2073 15.8321L30.2433 15.8744L30.2913 15.9321L30.3672 16.0165L30.4191 16.0702L30.467 16.124L30.5915 16.2973L30.6618 16.4952L30.679 16.573L30.6921 16.647L30.6962 16.6547L30.7247 16.7128L30.7484 16.7279L30.8196 16.7695L30.9702 16.8799L31.0982 17.0297L31.1423 17.0914L31.1825 17.1492L31.3004 17.3813L31.35 17.521L31.3867 17.5984L31.4193 17.6642L31.4274 17.6797L31.4631 17.7063L31.5265 17.7559L31.658 17.8822C31.7497 18.0006 31.7824 18.1404 31.7829 18.2744C31.8144 18.2934 31.8479 18.3108 31.8778 18.335L32.0255 18.4923L32.0657 18.554L32.1059 18.6118L32.1701 18.6965L32.2181 18.7503L32.2622 18.808L32.3711 18.9856L32.4296 19.1798L32.4428 19.2538L32.4561 19.3317L32.4731 19.4056L32.498 19.4754L32.5189 19.5492L32.5601 19.6539L32.5888 19.7237L32.6013 19.7664L32.6412 19.8047L32.693 19.8584L32.8006 19.9657L32.8524 20.0193L32.9004 20.0731L33.0241 20.2074L33.0721 20.2651L33.1163 20.3228L33.2127 20.4577L33.2781 20.6088L33.303 20.6786L33.3114 20.7097L33.3353 20.7327L33.3122 20.7527L33.3278 20.7484L33.3237 20.7407L33.3353 20.7327L33.391 20.7863C33.4437 20.8395 33.4858 20.8998 33.5195 20.9635L33.5939 21.1691L33.6071 21.247L33.6114 21.2664L33.6195 21.278L33.6674 21.3317L33.7233 21.3932L33.7512 21.42L33.7751 21.4468L33.9 21.6397L33.942 21.7874L33.9591 21.8613L33.9761 21.9313L33.9885 22.1654L33.9226 22.3894L33.9 22.4329L33.921 22.5106L33.9396 22.6587C33.9421 22.759 33.9253 22.8614 33.879 22.9568L33.7879 23.0953L33.7383 23.1549L33.6886 23.2106L33.5316 23.37L33.4779 23.4218L33.4203 23.4737C33.3744 23.5148 33.323 23.5483 33.27 23.5783L33.1034 23.6518L33.0296 23.6728L32.9559 23.6977C32.8961 23.7159 32.8346 23.7243 32.7728 23.7287L32.5851 23.7206L32.5107 23.7104L32.4362 23.6962L32.4206 23.6965L32.3465 23.7058L32.2763 23.711C32.1895 23.7198 32.1008 23.7197 32.0145 23.7084L31.9792 23.7012L31.9292 23.7413C31.846 23.7978 31.7354 23.8445 31.6071 23.8531C31.5422 23.8574 31.4804 23.8546 31.4232 23.8411L31.2658 23.7817L31.1946 23.7401L31.171 23.7288L31.1319 23.7296L31.0817 23.7579L31.0082 23.7945C30.9061 23.848 30.7836 23.8789 30.6501 23.8641C30.5356 23.8511 30.4407 23.8053 30.3667 23.7563C30.2355 23.8106 30.0977 23.8256 29.9649 23.7915L29.8114 23.732L29.7402 23.6905L29.7008 23.6717L29.6813 23.6721L29.607 23.6696L29.5954 23.6738L29.5215 23.6909L29.4515 23.7079L29.2452 23.751L29.1751 23.7602L29.101 23.7694L28.949 23.788L28.875 23.7973L28.8048 23.8065L28.7581 23.8152L28.6844 23.8401L28.6145 23.8649C28.5555 23.8843 28.4935 23.8939 28.4316 23.8998L28.248 23.8995L28.0991 23.8789L27.9227 23.8472L27.8481 23.8331L27.7775 23.8188L27.6167 23.7829L27.5853 23.7757L27.5389 23.804C27.4187 23.8708 27.2804 23.9047 27.1382 23.89L26.993 23.8577L26.9301 23.8355L26.8719 23.8561C26.8199 23.8731 26.7668 23.887 26.7124 23.8944L26.5446 23.9016L26.4741 23.8952L26.3998 23.8927C26.3598 23.8907 26.3185 23.8874 26.2786 23.8873L26.1341 23.8901C26.0671 23.8898 26.0032 23.8781 25.9421 23.8626L25.769 23.7996L25.694 23.762L25.6861 23.7583L25.6316 23.7672L25.3661 23.7763L25.2956 23.7698L25.2213 23.7635L25.1627 23.7646L25.0886 23.77L25.0417 23.7709L24.9759 23.8035L24.9063 23.84C24.8374 23.8736 24.7623 23.8957 24.6849 23.9068L24.4465 23.9037L24.372 23.8895L24.3014 23.8753C24.254 23.8661 24.2071 23.8508 24.1601 23.839L24.1447 23.8549C24.0611 23.927 23.932 24.0005 23.7648 24.0069C23.6114 24.0127 23.489 23.9547 23.3992 23.893L23.2288 23.9667L23.155 23.9876L23.085 24.0046C22.998 24.0291 22.9108 24.0375 22.8276 24.0292L22.5879 23.9597L22.513 23.926L22.442 23.8922C22.4268 23.8849 22.4155 23.8821 22.4105 23.8811L22.3517 23.8667L22.2859 23.8992C22.1984 23.9394 22.1063 23.9615 22.0136 23.9631L21.743 23.9099L21.6682 23.8801L21.5973 23.8502L21.5268 23.8438L21.4525 23.8374L21.4173 23.8381L21.3472 23.8473L21.3082 23.852L21.2542 23.8882L21.1848 23.9325C21.1341 23.9641 21.0775 23.9923 21.0184 24.0139L20.8277 24.0567L20.7576 24.0659L20.6835 24.0713L20.4805 24.0831L20.4102 24.0845L20.336 24.082C20.2051 24.0812 20.0885 24.0434 19.9865 23.9912C19.8707 24.0558 19.7384 24.0925 19.5974 24.077L19.4405 24.041L19.3656 24.0112L19.2948 23.9852L19.1729 23.9446L19.0982 23.9227L19.0667 23.9116L19.0473 23.9158L18.9772 23.9289L18.7119 23.9459L18.661 23.943L18.5917 23.9951C18.5377 24.0321 18.4766 24.064 18.4099 24.0885L18.1881 24.132L18.1179 24.1372L18.0437 24.1426C17.9809 24.1456 17.9192 24.141 17.8599 24.1306L17.6909 24.0792L17.6279 24.057L17.5775 24.0736L17.3634 24.1169L17.2933 24.1261L17.2193 24.1392C17.1379 24.1506 17.0591 24.1462 16.9847 24.1321L16.7763 24.062L16.729 24.0395L16.7096 24.0477C16.5644 24.0904 16.4134 24.0854 16.2719 24.0406L16.2011 24.0186L16.1814 24.0111L16.1737 24.0152L16.1037 24.0322L15.9715 24.066L15.9016 24.0869L15.8277 24.104C15.7647 24.1208 15.701 24.1299 15.6368 24.1312L15.445 24.1115L15.3705 24.0974L15.2998 24.0792L15.0876 24.017L15.0167 23.9871L14.9545 24.0039L14.8536 24.0372L14.7837 24.062L14.7101 24.0908C14.6239 24.1221 14.5355 24.1342 14.4491 24.1311L14.194 24.0736L14.1072 24.0323L14.1034 24.0363L14.0293 24.0455L13.8735 24.0681L13.7994 24.0735L13.7292 24.0827L13.6007 24.1008L13.5306 24.1139L13.4565 24.1232L13.3241 24.1453L13.2541 24.1623L13.1802 24.1755L12.8598 24.174L12.7853 24.1637L12.7108 24.1495C12.6353 24.1361 12.5673 24.1037 12.4984 24.0756C12.4019 24.1441 12.2843 24.2024 12.1455 24.2114L11.9891 24.2028L11.9185 24.1924L11.844 24.1783L11.8323 24.1785L11.7582 24.1839L11.688 24.193C11.6127 24.2001 11.5382 24.1955 11.469 24.1817L11.2763 24.1152L11.2053 24.0814L11.154 24.0551L11.1501 24.0551L11.1502 24.059L11.077 24.1152C10.965 24.2026 10.8169 24.2652 10.6501 24.2603L10.4737 24.2325L10.403 24.2104L10.34 24.1882L10.2932 24.1931L10.223 24.1983C10.11 24.2056 10.0023 24.1844 9.90169 24.1499C9.81661 24.2116 9.70105 24.2674 9.56031 24.2738C9.48831 24.277 9.42112 24.2683 9.36059 24.2504L9.19893 24.1754L9.13958 24.1375L9.10451 24.1421C9.02721 24.1539 8.94866 24.1607 8.87041 24.1585L8.79613 24.156L8.72576 24.1535L8.49862 24.1267L8.3496 24.0983L8.29477 24.0916L8.22057 24.0931L8.15019 24.0905L8.04474 24.0926L7.97452 24.0979L7.95139 24.114L7.87826 24.1701C7.79785 24.2298 7.68943 24.2848 7.55648 24.2975C7.42043 24.3105 7.29793 24.2754 7.19947 24.2225L7.12442 24.181L7.07702 24.1546L7.03866 24.1905C6.95191 24.2656 6.83407 24.3365 6.69038 24.3614L6.53814 24.3683L6.46386 24.3658L6.3895 24.3595C6.3062 24.3541 6.23055 24.3334 6.16183 24.3054L5.97613 24.1996L5.94443 24.1768L5.81225 24.2106L5.73062 24.2318L5.64508 24.253C5.50222 24.2889 5.3508 24.2798 5.21073 24.2185L5.07641 24.143L5.01293 24.0935L4.94554 24.044C4.88723 24.0001 4.83733 23.9479 4.79406 23.8907L4.68877 23.7013L4.65997 23.6276L4.63945 23.5773L4.60369 23.5467L4.54786 23.4892C4.49352 23.4365 4.44769 23.3765 4.41155 23.3121L4.33329 23.1066L4.31223 23.0289L4.29507 22.9511C4.25897 22.7945 4.27324 22.6326 4.33673 22.4853L4.37042 22.4104L4.40021 22.3356L4.4336 22.2451L4.4777 22.1036L4.55627 21.9262C4.58845 21.8716 4.62686 21.8213 4.67053 21.7755L4.77773 21.664L4.80438 21.6283L4.84221 21.5651L4.88012 21.5057L4.92538 21.4228L4.9593 21.3596L4.98932 21.2965L5.00341 21.2181L5.01367 21.1437L5.09063 20.8843L5.11666 20.8174L5.14661 20.7504L5.26783 20.5565C5.3164 20.5011 5.37146 20.4545 5.42918 20.4166C5.4395 20.2707 5.49014 20.1286 5.58915 20.0072L5.63486 19.9477L5.66151 19.912L5.68012 19.8647L5.70217 19.794L5.7655 19.6364C5.79296 19.5849 5.82674 19.5352 5.86421 19.4899L5.91001 19.4344L5.95963 19.3748L5.99003 19.3312L6.02395 19.268L6.03896 19.2365L6.0421 19.1973L6.0483 19.1152L6.12113 18.8442C6.16413 18.7617 6.22571 18.6897 6.30055 18.6297L6.36204 18.5777L6.42751 18.5295L6.48885 18.4697L6.59989 18.3542L6.63382 18.291L6.66008 18.2358L6.6705 18.1692L6.68076 18.0948L6.74309 17.8865C6.7736 17.8204 6.81473 17.7564 6.86446 17.7005L6.96386 17.5891L6.99809 17.5416L7.00935 17.5179L6.99618 17.4439C6.96286 17.274 6.97992 17.0593 7.12965 16.8787L7.17935 16.823L7.22897 16.7634L7.25179 16.7317L7.28564 16.6647L7.31566 16.6016L7.43313 16.4156L7.47884 16.3561L7.48612 16.3286L7.4924 16.2504L7.56951 15.9988C7.60995 15.9214 7.66441 15.8513 7.73346 15.7924L7.79495 15.7404L7.85254 15.6885L7.87176 15.6725L7.91357 15.6131L7.92491 15.5933L7.93203 15.558L7.94619 15.4835L8.03877 15.2238C8.08635 15.1464 8.14878 15.0784 8.22241 15.0249L8.28788 14.9767L8.33414 14.9445L8.3493 14.9208L8.34907 14.9091L8.34348 14.8232C8.333 14.698 8.34742 14.5607 8.40604 14.4274L8.46592 14.2934L8.56425 14.1274C8.60364 14.0767 8.64971 14.0315 8.69833 13.9919L8.74061 13.9559L8.7514 13.9088L8.7952 13.7517C8.81545 13.7008 8.84439 13.6528 8.87439 13.6056L8.91221 13.5423L8.95012 13.483L9.05679 13.3441C9.09637 13.303 9.14252 13.2684 9.18751 13.2361L9.20673 13.2201L9.21026 13.2005L9.25689 12.9886L9.27496 12.914L9.29702 12.8432L9.39013 12.6109L9.42398 12.5438L9.4579 12.4806L9.51809 12.3622L9.54811 12.2991L9.58196 12.232L9.7381 12.0258C9.79266 11.9766 9.85257 11.9387 9.91163 11.9091C9.91933 11.8408 9.93046 11.7723 9.9506 11.7052L9.99471 11.5637L10.1414 11.2756L10.1832 11.2162L10.229 11.1606L10.3127 11.0456L10.3545 10.9862L10.3774 10.9545L10.3883 10.9152L10.4025 10.8407L10.5102 10.5534L10.5858 10.4269L10.7116 10.2642C10.7598 10.2171 10.8148 10.1805 10.8695 10.1478L10.9389 10.1035L10.9427 10.0995L10.9652 10.0482L11.063 9.85879L11.097 9.79952L11.1311 9.74415L11.1312 9.74806L11.1349 9.73627L11.1454 9.67355L11.1634 9.59896L11.2143 9.40261L11.2402 9.33178L11.2624 9.26493L11.3634 9.03634L11.4013 8.97699L11.4352 8.91381L11.5375 8.75162L11.6211 8.63277L11.6971 8.52188L11.7807 8.40303L11.914 8.22851L11.9677 8.17276L11.9752 8.15698L11.9863 8.12941L12.0084 8.05866L12.1132 7.82609C12.1618 7.75756 12.2215 7.69803 12.2895 7.65072L12.3551 7.60646L12.3935 7.57445L12.4049 7.5586L12.5406 7.30589L12.5362 7.27862L12.5306 7.19278C12.5222 7.08967 12.5344 6.96511 12.598 6.84373C12.6628 6.72068 12.7622 6.63701 12.8586 6.58467L12.9049 6.55641L12.9161 6.53275L13.0096 6.31994L13.0775 6.19358L13.2103 5.99172L13.2446 5.94807L13.2484 5.94409L13.2546 5.86192L13.2792 5.72078C13.3174 5.58364 13.3972 5.46023 13.5184 5.36837L13.5376 5.35236L13.5411 5.32885L13.5806 5.15226C13.6006 5.09421 13.6291 5.03694 13.6632 4.98264L13.7011 4.92329L13.739 4.86004L13.7805 4.7889L13.8404 4.65488L14.0002 4.43686C14.0562 4.38615 14.1196 4.34969 14.1816 4.32C14.1908 4.24932 14.2057 4.17732 14.2282 4.10811L14.2723 3.96659L14.3963 3.71411L14.4381 3.65469L14.4759 3.59143L14.5982 3.44838C14.6434 3.40637 14.6938 3.37065 14.7445 3.34003L14.814 3.29959L14.8641 3.26345L14.8908 3.23167L14.9366 3.17216L14.9516 3.14452L14.9815 3.07361L15.0075 3.00668L15.1283 2.78942L15.1701 2.73L15.1929 2.69439L15.2075 2.64331L15.2217 2.5688L15.2921 2.37598C15.3223 2.31662 15.3601 2.2608 15.406 2.20965L15.4557 2.15397L15.4748 2.13016L15.4859 2.09868L15.5041 2.028L15.6129 1.79926C15.6613 1.73244 15.7207 1.67456 15.7892 1.6278L15.9203 1.53927L15.9665 1.50321L15.9894 1.47541L15.9961 1.41667L16.0206 1.27163C16.0608 1.13295 16.1471 1.00634 16.2793 0.914928L16.3448 0.870665L16.4065 0.826479L16.565 0.741322C16.6194 0.718758 16.6768 0.702035 16.7359 0.691085L16.8099 0.677913L16.8488 0.669336L16.8874 0.645137L16.9492 0.608762L17.0532 0.536394L17.1149 0.492208L17.1726 0.448098L17.3579 0.335067L17.4894 0.262164L17.6833 0.19194C17.7501 0.176628 17.8201 0.169361 17.89 0.172257L17.9643 0.174707L18.0112 0.173788L18.05 0.161305L18.1197 0.132588L18.4389 0.0716288L18.5834 0.0687942ZM5.55349 23.3679L5.51466 23.3804L5.5191 23.4076L5.45057 23.4988L5.42514 23.3977L5.50141 23.3025L5.4936 23.3026L5.49368 23.3065L5.42514 23.3977L5.45057 23.4988L5.55349 23.3679ZM5.5191 23.4076L5.51466 23.3804L5.55349 23.3679L5.5191 23.4076ZM18.416 1.09181L18.3462 1.12052C18.2349 1.16421 18.1151 1.18314 17.9957 1.17819L17.9214 1.17574L17.9018 1.17222L17.8942 1.18018L17.8284 1.21663L17.7551 1.26105L17.6973 1.30516L17.6357 1.34935L17.5008 1.44185L17.443 1.48206L17.3812 1.51843C17.3314 1.5513 17.28 1.5785 17.2265 1.59961L17.0633 1.64579L16.9932 1.65888L16.9776 1.65919C16.971 1.73758 16.9561 1.81621 16.9235 1.89076L16.7793 2.10457L16.6719 2.20826L16.4835 2.36433L16.4372 2.39258L16.4302 2.4357C16.4134 2.49739 16.3898 2.55703 16.3595 2.6129L16.2492 2.76744L16.1995 2.82311L16.1879 2.83115L16.1845 2.85466L16.1703 2.92917C16.1584 2.98412 16.1411 3.03824 16.1188 3.09037L16.0319 3.24054L15.99 3.29996L15.9483 3.3633L15.9295 3.39883L15.8696 3.53284L15.7451 3.75798L15.6615 3.87683C15.6253 3.92683 15.5826 3.96908 15.539 4.00817L15.4004 4.11247L15.3309 4.1529L15.2806 4.18123L15.2655 4.20888L15.2277 4.27213L15.2239 4.27612L15.2018 4.34687L15.1759 4.41771L15.1689 4.46082L15.1626 4.53909L15.1564 4.62126C15.1467 4.73118 15.1075 4.84573 15.03 4.94802C14.9915 4.99863 14.9485 5.0422 14.9036 5.07552L14.7683 5.15241L14.6947 5.1812L14.6874 5.20869L14.5855 5.39432L14.5476 5.45367L14.5286 5.48139L14.5257 5.52833L14.5155 5.60667C14.5042 5.69963 14.4757 5.78781 14.4307 5.8662L14.2471 6.06905L14.2432 6.06913L14.2436 6.08866C14.239 6.16209 14.224 6.23666 14.1971 6.30836L14.0761 6.5139L13.9846 6.62509L13.958 6.66468L13.8901 6.79104L13.864 6.85016L13.8198 6.99167C13.7666 7.15009 13.6563 7.25787 13.5375 7.33712C13.5387 7.389 13.5426 7.44283 13.5328 7.4974L13.455 7.71381L13.4212 7.78089L13.3873 7.84407L13.3156 7.97441L13.2477 8.10076C13.2155 8.15963 13.1766 8.21267 13.1336 8.25928L12.9953 8.37921L12.9452 8.41145L12.9381 8.45065C12.9219 8.51416 12.8981 8.57463 12.8675 8.63176L12.7573 8.7902L12.7076 8.84588L12.654 8.90163L12.6121 8.95715L12.5703 9.02048L12.5285 9.0799L12.4412 9.21055L12.3994 9.26997L12.3537 9.32947L12.3006 9.41256L12.2667 9.47574L12.2289 9.53899L12.2101 9.57843L12.166 9.71995L12.1404 9.81031L12.1224 9.8849L12.1082 9.95941L11.9965 10.2429L11.9209 10.3694L11.8871 10.4404L11.8572 10.5074L11.8311 10.5743C11.7978 10.6528 11.7507 10.719 11.6983 10.7762L11.5253 10.9163L11.4558 10.9607L11.4211 10.9809L11.4136 10.9967L11.3757 11.0599L11.3652 11.1187L11.351 11.1932C11.3389 11.2515 11.3197 11.3078 11.2957 11.3623L11.205 11.5204L11.1593 11.5799L11.1175 11.6393L11.0261 11.7622L10.9843 11.8177L10.946 11.8615L10.9316 11.9204L10.9095 11.9911L10.9025 12.0303L10.8963 12.1125L10.8939 12.1907C10.8807 12.3871 10.7849 12.5421 10.6567 12.6446L10.5177 12.7294L10.4363 12.7662L10.4285 12.7663L10.4137 12.8057L10.3422 12.9477L10.3083 13.0109L10.2745 13.078L10.2595 13.1135L10.2375 13.1842L10.2194 13.2588L10.2014 13.3373L10.1912 13.4156L10.181 13.4901C10.1676 13.5872 10.1326 13.6759 10.0846 13.7537L9.90092 13.9527L9.83545 14.0009L9.77755 14.0372L9.75496 14.0806L9.72839 14.1202L9.71782 14.179L9.70366 14.2535C9.68678 14.3382 9.65331 14.4163 9.61054 14.4858L9.45003 14.6687L9.38847 14.7168L9.3576 14.7369L9.35033 14.7644L9.33892 14.7803L9.34765 14.827L9.35316 14.9089L9.34199 15.1357L9.25262 15.3602L9.21479 15.4235L9.17689 15.4828C9.14556 15.5344 9.10977 15.5834 9.07029 15.6255L8.93965 15.7375L8.91262 15.7537L8.91308 15.7771C8.90402 15.8399 8.88929 15.9023 8.8659 15.9617L8.77156 16.1315L8.68794 16.2504L8.50048 16.4533L8.47352 16.4734L8.47413 16.5046C8.4674 16.572 8.4513 16.6404 8.42727 16.7048L8.32542 16.8904L8.2418 17.0092L8.20389 17.0686L8.13605 17.195C8.09922 17.2651 8.05242 17.3281 8.00311 17.389L8.01176 17.4318C8.03375 17.544 8.03443 17.6776 7.98795 17.8113L7.92416 17.9453L7.88625 18.0047L7.84842 18.0679L7.71143 18.2543L7.65782 18.31L7.6579 18.3139L7.64764 18.3884L7.55192 18.6872L7.51807 18.7542L7.48415 18.8174L7.31682 19.0512L7.21344 19.1587L7.05232 19.3104L7.03686 19.3185L7.03716 19.3341C7.03348 19.3937 7.022 19.4555 7.00554 19.5144L6.9347 19.6877L6.90078 19.7509L6.86303 19.8181L6.73016 20.016L6.68047 20.0717L6.64983 20.1036L6.63904 20.1507L6.61698 20.2214C6.60062 20.2763 6.57997 20.3292 6.55365 20.3789L6.45877 20.5215L6.41666 20.5653L6.41811 20.6395C6.41073 20.8087 6.34186 20.955 6.23502 21.065L6.11969 21.161L6.05023 21.2054L6.03477 21.2135L6.00865 21.2765L6.0013 21.3001L5.99112 21.3784L5.97695 21.453L5.88873 21.736L5.85481 21.7992L5.82487 21.8662L5.73053 22.036L5.69262 22.0954L5.65089 22.1587L5.49842 22.3531L5.42184 22.4328L5.41457 22.4603L5.39251 22.531L5.31831 22.7317L5.28852 22.8066L5.28868 22.8144L5.30062 22.8259L5.35645 22.8834L5.47645 23.0256L5.56176 23.1919L5.5783 23.2385C5.63061 23.2253 5.68106 23.2154 5.72609 23.2043L5.79601 23.1834L5.866 23.1664L6.02973 23.1476C6.08352 23.1485 6.13437 23.1591 6.18258 23.1719L6.42717 23.2921L6.49058 23.3378L6.52519 23.3098L6.75309 23.1764C6.79784 23.1598 6.84597 23.1488 6.89698 23.1423L7.06101 23.1391L7.13154 23.1494L7.20597 23.1597L7.37467 23.1954C7.40598 23.2058 7.43585 23.2194 7.46527 23.2327C7.56589 23.1661 7.68962 23.114 7.83391 23.1044L7.90804 23.099L7.97826 23.0937L8.16573 23.09L8.24001 23.0925L8.31031 23.0911L8.54525 23.1178L8.61586 23.132L8.69037 23.1462L8.75301 23.1527L8.82729 23.1552L8.89767 23.1577C8.91549 23.1582 8.93385 23.1555 8.95227 23.1527L9.02632 23.1435L9.09639 23.1304L9.36234 23.1447C9.41515 23.1574 9.46178 23.1818 9.50807 23.2044C9.62304 23.1344 9.76188 23.0959 9.90865 23.1105L10.0814 23.154L10.1562 23.1799L10.1995 23.1986L10.2307 23.198L10.301 23.1927L10.4691 23.1972C10.5116 23.2026 10.5535 23.2109 10.5946 23.2221L10.6062 23.218L10.8071 23.1007C10.8838 23.0715 10.97 23.0553 11.0641 23.0566L11.1383 23.0552L11.2086 23.0577L11.3966 23.0814L11.5659 23.1445L11.6408 23.1781L11.6605 23.1895L11.6644 23.1894L11.7386 23.184L12.0162 23.1942L12.0624 23.1621L12.1937 23.0813C12.2449 23.0585 12.3051 23.0436 12.3686 23.0349C12.4323 23.0264 12.4939 23.0256 12.5522 23.0352L12.7174 23.0906L12.8672 23.158L12.8869 23.1654L12.9574 23.1758L13.0162 23.1863L13.0707 23.1774L13.1447 23.1643L13.3005 23.1378L13.3744 23.1246L13.4446 23.1154L13.6082 23.0927L13.6823 23.0834L13.7524 23.0742L13.8849 23.056L13.959 23.0467L14.029 23.0336L14.2478 23.0332L14.4482 23.0918L14.4837 23.1068L14.7012 23.04L14.775 23.019L14.845 23.002L15.075 22.9779L15.2947 23.0244L15.3656 23.0543L15.4404 23.0802L15.519 23.106L15.5896 23.1202L15.6131 23.1237L15.6404 23.1192L15.7143 23.1022L15.8737 23.06L15.9436 23.043L16.0175 23.0259L16.2242 23.0062L16.4281 23.0413L16.5027 23.0632L16.5066 23.0632L16.5727 23.0462L16.8418 23.0214L17.0855 23.0948L17.1605 23.1324L17.1644 23.1323L17.2268 23.1272L17.3007 23.1101L17.3745 23.0891L17.4444 23.0682L17.6823 23.044L17.9138 23.0942L17.9846 23.1201L18.0319 23.1387L18.0748 23.1379L18.0979 23.1218L18.1673 23.0697L18.3762 22.9679C18.4525 22.9442 18.5364 22.9343 18.6257 22.9396L18.7 22.942L18.7705 22.9484L18.7978 22.9479L18.8679 22.9348L18.9418 22.9177L19.137 22.91L19.3252 22.9454L19.3999 22.9673L19.4706 22.9894L19.624 23.0411L19.6279 23.041L19.7749 22.9678C19.8305 22.9486 19.8916 22.935 19.9579 22.933C20.0247 22.931 20.0887 22.9405 20.1459 22.9566L20.2996 23.0239L20.3746 23.0654L20.4141 23.0842L20.4883 23.0827L20.5741 23.0771L20.6482 23.0718L20.6755 23.0673L20.7257 23.039L20.7952 22.9947L20.9538 22.9134C21.0108 22.8916 21.0722 22.8758 21.1365 22.8669L21.2106 22.8576L21.2807 22.8484L21.5384 22.8394L21.6088 22.8459L21.6832 22.8522L21.9776 22.9246L21.9933 22.9282L22.0128 22.9239L22.2303 22.861L22.465 22.8721L22.5395 22.8862L22.6101 22.9005C22.7023 22.9192 22.7912 22.9497 22.8736 22.9891L22.9209 23.0116L22.9559 23.0031L23.0024 22.9826L23.1494 22.9094L23.3201 22.8475C23.3817 22.8353 23.4473 22.8312 23.5153 22.8397C23.5947 22.8497 23.664 22.8755 23.7237 22.906C23.8152 22.8488 23.928 22.8089 24.0538 22.8057L24.2339 22.8256L24.3086 22.8476L24.3793 22.8658L24.4931 22.8909L24.5441 22.9016L24.6099 22.8691L24.765 22.8113C24.8186 22.796 24.8747 22.7856 24.9324 22.7807L25.0065 22.7753L25.0768 22.77L25.3073 22.7694L25.3816 22.7758L25.4521 22.7822L25.4794 22.7817L25.5495 22.7686L25.6235 22.7593L25.858 22.7625L26.0704 22.8326L26.1414 22.8664L26.1848 22.8889L26.2824 22.887C26.3388 22.8872 26.3981 22.8924 26.4545 22.8954L26.5249 22.8979L26.5756 22.8969L26.6339 22.8801L26.7038 22.8592L26.9336 22.8235L27.1648 22.858L27.1726 22.8578L27.1959 22.8496L27.4326 22.7668L27.6985 22.7772L27.7691 22.7915L27.8437 22.8095L27.9771 22.8382L28.0477 22.8524L28.1222 22.8666L28.232 22.8879L28.3065 22.8981L28.3339 22.9015L28.3727 22.889L28.4464 22.8641L28.6877 22.8125L28.7617 22.8032L28.8319 22.794L28.9683 22.7796L29.0423 22.7665L29.1124 22.7573L29.1981 22.74L29.272 22.7229L29.342 22.7059L29.6186 22.6692L29.6929 22.6717L29.7632 22.6703L29.9631 22.7015C30.0185 22.7168 30.0715 22.7361 30.1205 22.761C30.2178 22.7124 30.3362 22.6866 30.4631 22.6995C30.58 22.7116 30.6754 22.7575 30.7505 22.8072C30.8376 22.7694 30.9321 22.7414 31.0343 22.7352L31.1084 22.7299L31.1787 22.7285L31.3979 22.7476C31.4492 22.7598 31.4973 22.7784 31.5434 22.7995C31.6682 22.7236 31.8234 22.6739 31.9985 22.6968L32.073 22.707L32.1435 22.7174C32.154 22.7188 32.1652 22.7177 32.1747 22.7168L32.2489 22.7114L32.319 22.7022L32.5966 22.7124L32.671 22.7226L32.7024 22.7259L32.7374 22.7174L32.7762 22.705L32.8069 22.677L32.8645 22.6251L32.9065 22.5774C32.8719 22.429 32.8798 22.2647 32.952 22.1076L32.9744 22.0564L32.9145 21.9873L32.8186 21.8797C32.7718 21.8261 32.7351 21.7672 32.7058 21.7061L32.6435 21.5198L32.6264 21.442L32.6263 21.4381L32.5745 21.3844C32.5305 21.34 32.491 21.2911 32.4583 21.2383L32.3807 21.0679L32.3559 20.998L32.3353 20.9437L32.2553 20.8476L32.1794 20.7632L32.1276 20.7134L32.0797 20.6596L31.98 20.5561L31.9281 20.5024L31.8724 20.4488C31.8335 20.4089 31.7991 20.3646 31.7682 20.318L31.6871 20.1672L31.6623 20.0974L31.6337 20.0315L31.5717 19.8608L31.5469 19.7871L31.522 19.7173L31.4708 19.4956L31.4576 19.4177L31.4532 19.3943L31.4452 19.3867L31.3972 19.329L31.285 19.1827L31.2447 19.121L31.2406 19.1133L31.1973 19.0946L31.1222 19.0531C31.0202 19.0035 30.9137 18.9199 30.8435 18.789C30.7774 18.6653 30.7655 18.541 30.7742 18.4387C30.7393 18.4102 30.7049 18.3812 30.6747 18.3469L30.5661 18.1888L30.5296 18.1231L30.4971 18.0574L30.4153 17.8714L30.3866 17.8017L30.3618 17.7318L30.3495 17.7047L30.3093 17.643L30.2932 17.6199L30.2498 17.5973L30.1786 17.5557C30.1197 17.5218 30.0627 17.4805 30.0121 17.43L29.8796 17.2529L29.8471 17.1871L29.8146 17.1252L29.7155 16.8498L29.6984 16.7759L29.6942 16.7603L29.6423 16.7067L29.5225 16.5723L29.4264 16.4569L29.2686 16.1787L29.219 16.0391L29.1944 15.9809L29.158 15.9191L29.1255 15.8534L29.0226 15.5897L28.9885 15.4419L28.9634 15.3603L28.9347 15.2906L28.91 15.2247L28.8979 15.2054L28.8576 15.1436L28.8174 15.0858L28.8055 15.0743L28.6863 14.9751C28.5594 14.869 28.4757 14.7251 28.4438 14.5618L28.4267 14.4879L28.4135 14.41L28.3966 14.3478L28.3884 14.3285L28.3332 14.3022C28.2623 14.2685 28.1927 14.2222 28.1312 14.1616L27.9783 13.9341L27.9496 13.8682L27.9291 13.8178L27.8972 13.7833L27.8453 13.7296C27.7014 13.5816 27.6458 13.3969 27.6518 13.2255L27.6542 13.1473L27.6341 13.1204L27.4927 12.8809L27.464 12.815L27.4353 12.7453L27.3946 12.664L27.3581 12.5944L27.3344 12.5832L27.2633 12.5416C27.2143 12.5137 27.1656 12.4807 27.1207 12.4428L26.997 12.3124L26.9529 12.2547L26.9049 12.197C26.8664 12.1471 26.8335 12.0943 26.808 12.0387L26.7538 11.8639L26.7367 11.7861L26.7196 11.7122L26.6917 11.4862L26.6874 11.4628L26.6834 11.459L26.4963 11.283L26.4483 11.2253L26.4042 11.1675L26.2549 10.9282L26.2263 10.8624L26.1937 10.7966L26.1364 10.661L26.1038 10.5952L26.0752 10.5293L26.0468 10.4752L26.0065 10.4135L25.9703 10.3595L25.9703 10.3634L25.8512 10.2642C25.7302 10.1689 25.6487 10.0438 25.6136 9.90547L25.5952 9.76127L25.591 9.74572C25.4039 9.59816 25.3313 9.38135 25.3454 9.18012L25.3454 9.17621C25.294 9.13154 25.2466 9.08352 25.2096 9.0265L25.1154 8.80565L25.0944 8.73183L25.0773 8.65793L25.0452 8.61168L25.0088 8.54988L24.9158 8.39152L24.8834 8.32964L24.8794 8.32581L24.8636 8.31831L24.7886 8.2768C24.6871 8.21989 24.586 8.12827 24.5251 7.99285C24.4656 7.85945 24.466 7.7273 24.4828 7.62642L24.4897 7.5794L24.4538 7.54494L24.3943 7.49532L24.3308 7.44578L24.1634 7.28106L24.1155 7.2273L24.0636 7.16971L23.9352 6.99642L23.8546 6.87297C23.7398 6.69363 23.7366 6.50044 23.7662 6.35117L23.7839 6.25705L23.7799 6.25323L23.7403 6.22275L23.6769 6.17711L23.4698 5.97801L23.3816 5.86253L23.2443 5.63861L23.2118 5.57283L23.1831 5.50307C23.1287 5.38287 23.1077 5.25893 23.1096 5.14116L23.1085 5.08648L23.0965 5.075L23.0608 5.04444L22.9261 4.95331C22.8531 4.90341 22.789 4.84005 22.7388 4.76554L22.6322 4.50977L22.6191 4.4358L22.6104 4.39299L22.5943 4.36987L22.5501 4.30822L22.4658 4.19266L22.4217 4.13492L22.3775 4.07328C22.3344 4.01389 22.3037 3.94946 22.28 3.88375L22.2331 3.6815L22.2222 3.52544L22.2084 3.42022L22.2 3.38913L22.1683 3.36631C22.0236 3.26024 21.9234 3.10315 21.8977 2.9145L21.8938 2.91457C21.8309 2.87902 21.7703 2.83099 21.7152 2.77352L21.5783 2.56913L21.5496 2.49937L21.521 2.43351L21.4413 2.15768L21.4321 2.08363L21.4234 2.03691L21.4031 2.00215L21.3668 1.94035L21.2654 1.75089L21.2081 1.61918L21.216 1.62684L21.1681 1.57308L21.1242 1.52315L21.0282 1.41173L20.9802 1.35407L20.9443 1.3157L20.8575 1.27443L20.7988 1.27167L20.7245 1.26531C20.6624 1.26022 20.6022 1.24786 20.5441 1.22978L20.3786 1.1588L20.3114 1.12104L20.2838 1.10596L20.2135 1.10734L20.1515 1.132L20.0738 1.15696L19.7507 1.218L19.6803 1.21547L19.6061 1.21693C19.55 1.21663 19.495 1.21114 19.4417 1.20062L19.2806 1.15299L19.2097 1.12312L19.1782 1.11202L19.151 1.11646L19.0807 1.12174L18.7835 1.10413L18.7089 1.08606L18.6344 1.07189L18.603 1.0686L18.4663 1.07128L18.416 1.09181ZM33.1576 22.0333L33.0617 22.125L33.2641 22.082L33.1576 22.0333ZM33.2641 22.082L33.0617 22.125L33.1001 22.0891L33.1576 22.0333L33.2641 22.082ZM33.3278 20.7484L33.3122 20.7527L33.3237 20.7407L33.3278 20.7484ZM28.6783 13.5687L28.6332 13.6634L28.7534 13.6141L28.7984 13.5195L28.6783 13.5687ZM28.7534 13.6141L28.6332 13.6634L28.6783 13.5687L28.7984 13.5195L28.7534 13.6141ZM25.7419 9.67244L25.6732 9.75583L25.7787 9.75376L25.8473 9.66646L25.7419 9.67244ZM25.7787 9.75376L25.6732 9.75583L25.7419 9.67244L25.8473 9.66646L25.7787 9.75376ZM26.3314 9.64915L26.2627 9.73255L26.4735 9.7245L26.5383 9.64119L26.3314 9.64915ZM26.3643 9.73055L26.2627 9.73255L26.3314 9.64915L26.4329 9.64325L26.3643 9.73055ZM26.4735 9.7245L26.3643 9.73055L26.4329 9.64325L26.5383 9.64119L26.4735 9.7245ZM26.1284 9.05927L26.0597 9.14266L26.1536 9.14864L26.2184 9.06532L26.1284 9.05927ZM26.2184 9.06532L26.1536 9.14864L26.0597 9.14266L26.1284 9.05927L26.2184 9.06532ZM25.698 9.02864L25.5141 9.01662L25.4455 9.10001L25.6332 9.11196L25.698 9.02864ZM25.698 9.02864L25.6332 9.11196L25.5393 9.10599L25.608 9.02259L25.698 9.02864ZM25.608 9.02259L25.5393 9.10599L25.4455 9.10001L25.5141 9.01662L25.608 9.02259ZM25.8153 8.63173L25.9397 8.60194L26.016 8.50668L25.8915 8.53647L25.8153 8.63173ZM25.9397 8.60194L25.8153 8.63173L25.8915 8.53647L26.016 8.50668L25.9397 8.60194ZM22.0632 2.78623L22.0179 2.86916L22.1232 2.85928L22.1685 2.77635L22.0632 2.78623ZM22.1232 2.85928L22.0179 2.86916L22.0632 2.78623L22.1685 2.77635L22.1232 2.85928ZM22.6731 2.80943L22.7823 2.79947L22.8432 2.71623L22.734 2.72619L22.6731 2.80943ZM22.7823 2.79947L22.6731 2.80943L22.734 2.72619L22.8432 2.71623L22.7823 2.79947Z" fill="white"/>
</g>
<defs>
<filter id="filter0_d_367_2" x="0.275635" y="0.0687866" width="37.7129" height="32.2995" filterUnits="userSpaceOnUse" color-interpolation-filters="sRGB">
<feFlood flood-opacity="0" result="BackgroundImageFix"/>
<feColorMatrix in="SourceAlpha" type="matrix" values="0 0 0 0 0 0 0 0 0 0 0 0 0 0 0 0 0 0 127 0" result="hardAlpha"/>
<feOffset dy="4"/>
<feGaussianBlur stdDeviation="2"/>
<feComposite in2="hardAlpha" operator="out"/>
<feColorMatrix type="matrix" values="0 0 0 0 0 0 0 0 0 0 0 0 0 0 0 0 0 0 0.25 0"/>
<feBlend mode="normal" in2="BackgroundImageFix" result="effect1_dropShadow_367_2"/>
<feBlend mode="normal" in="SourceGraphic" in2="effect1_dropShadow_367_2" result="shape"/>
</filter>
</defs>
</svg>
